  0
SECTION
  2
HEADER
  9
$ACADVER
  1
AC1009
  9
$FILLMODE
 70
0
  9
$EXTMIN
 10
-4.5835
 20
-6.0345
 30
0.0000
  9
$EXTMAX
 10
54.6862
 20
75.9512
 30
0.0000
  0
ENDSEC
  0
SECTION
  2
TABLES
  0
TABLE
  2
LTYPE
 70
1
  0
LTYPE
  2
CONTINUOUS
 70
64
  3
Solid line
 72
65
 73
0
 40
0
  0
ENDTAB
  0
TABLE
  2
LAYER
 70
255
  0
LAYER
  2
19
 70
64
 62
53
  6
CONTINUOUS
  0
LAYER
  2
20
 70
64
 62
30
  6
CONTINUOUS
  0
LAYER
  2
21
 70
64
 62
253
  6
CONTINUOUS
  0
LAYER
  2
23
 70
64
 62
7
  6
CONTINUOUS
  0
LAYER
  2
25
 70
64
 62
253
  6
CONTINUOUS
  0
LAYER
  2
39
 70
64
 62
22
  6
CONTINUOUS
  0
LAYER
  2
40
 70
64
 62
175
  6
CONTINUOUS
  0
LAYER
  2
43
 70
64
 62
82
  6
CONTINUOUS
  0
LAYER
  2
48
 70
64
 62
213
  6
CONTINUOUS
  0
LAYER
  2
49
 70
64
 62
253
  6
CONTINUOUS
  0
LAYER
  2
51
 70
64
 62
253
  6
CONTINUOUS
  0
LAYER
  2
52
 70
64
 62
253
  6
CONTINUOUS
  0
LAYER
  2
105
 70
64
 62
5
  6
CONTINUOUS
  0
LAYER
  2
114
 70
64
 62
253
  6
CONTINUOUS
  0
LAYER
  2
115
 70
64
 62
253
  6
CONTINUOUS
  0
LAYER
  2
211
 70
64
 62
253
  6
CONTINUOUS
  0
LAYER
  2
212
 70
64
 62
253
  6
CONTINUOUS
  0
LAYER
  2
213
 70
64
 62
253
  6
CONTINUOUS
  0
LAYER
  2
214
 70
64
 62
253
  6
CONTINUOUS
  0
LAYER
  2
216
 70
64
 62
253
  6
CONTINUOUS
  0
LAYER
  2
217
 70
64
 62
253
  6
CONTINUOUS
  0
LAYER
  2
218
 70
64
 62
253
  6
CONTINUOUS
  0
LAYER
  2
219
 70
64
 62
253
  6
CONTINUOUS
  0
LAYER
  2
220
 70
64
 62
253
  6
CONTINUOUS
  0
LAYER
  2
221
 70
64
 62
253
  6
CONTINUOUS
  0
LAYER
  2
222
 70
64
 62
253
  6
CONTINUOUS
  0
LAYER
  2
223
 70
64
 62
253
  6
CONTINUOUS
  0
LAYER
  2
224
 70
64
 62
253
  6
CONTINUOUS
  0
LAYER
  2
225
 70
64
 62
253
  6
CONTINUOUS
  0
LAYER
  2
226
 70
64
 62
253
  6
CONTINUOUS
  0
LAYER
  2
227
 70
64
 62
253
  6
CONTINUOUS
  0
ENDTAB
  0
ENDSEC
  0
SECTION
  2
BLOCKS
  0
BLOCK
  8
0
  2
RECT
 70
64
 10
0.0000
 20
0.0000
 30
0.0000
  3
RECT
  0
SOLID
  8
0
 10
-0.5000
 20
-0.5000
 30
0.0000
 11
0.5000
 21
-0.5000
 31
0.0000
 12
-0.5000
 22
0.5000
 32
0.0000
 13
0.5000
 23
0.5000
 33
0.0000
  0
ENDBLK
  8
0
  0
BLOCK
  8
0
  2
PIE
 70
64
 10
0.0000
 20
0.0000
 30
0.0000
  3
PIE
  0
CIRCLE
  8
0
 10
0.0000
 20
0.0000
 30
0.0000
 40
0.5000
  0
ENDBLK
  8
0
  0
BLOCK
  8
0
  2
OCTAGONP
 70
64
 10
0.0000
 20
0.0000
 30
0.0000
  3
OCTAGONP
  0
POLYLINE
  8
0
 66
1
 10
0.0000
 20
0.0000
 30
0.0000
 40
0.0000
 41
0.0000
 70
1
  0
VERTEX
  8
0
 10
-0.5000
 20
-0.2071
 30
0.0000
  0
VERTEX
  8
0
 10
-0.5000
 20
0.2071
 30
0.0000
  0
VERTEX
  8
0
 10
-0.2071
 20
0.5000
 30
0.0000
  0
VERTEX
  8
0
 10
0.2071
 20
0.5000
 30
0.0000
  0
VERTEX
  8
0
 10
0.5000
 20
0.2071
 30
0.0000
  0
VERTEX
  8
0
 10
0.5000
 20
-0.2071
 30
0.0000
  0
VERTEX
  8
0
 10
0.2071
 20
-0.5000
 30
0.0000
  0
VERTEX
  8
0
 10
-0.2071
 20
-0.5000
 30
0.0000
  0
SEQEND
  8
0
  0
ENDBLK
  8
0
  0
BLOCK
  8
0
  2
SQUAREP
 70
64
 10
0.0000
 20
0.0000
 30
0.0000
  3
SQUAREP
  0
SOLID
  8
0
 10
-0.5000
 20
-0.5000
 30
0.0000
 11
0.5000
 21
-0.5000
 31
0.0000
 12
-0.5000
 22
0.5000
 32
0.0000
 13
0.5000
 23
0.5000
 33
0.0000
  0
ENDBLK
  8
0
  0
BLOCK
  8
0
  2
ROUNDP
 70
64
 10
0.0000
 20
0.0000
 30
0.0000
  3
ROUNDP
  0
CIRCLE
  8
0
 10
0.0000
 20
0.0000
 30
0.0000
 40
0.5000
  0
ENDBLK
  8
0
  0
BLOCK
  8
0
  2
ANNULUSP
 70
64
 10
0.0000
 20
0.0000
 30
0.0000
  3
ANNULUSP
  0
CIRCLE
  8
0
 10
0.0000
 20
0.0000
 30
0.0000
 40
0.5000
  0
ENDBLK
  8
0
  0
BLOCK
  8
0
  2
THERMALP
 70
64
 10
0.0000
 20
0.0000
 30
0.0000
  3
THERMALP
  0
LINE
  8
0
 10
-0.2379
 20
0.4500
 30
0.0000
 11
0.2379
 21
0.4500
 31
0.0000
  0
LINE
  8
0
 10
0.4500
 20
0.2379
 30
0.0000
 11
0.4500
 21
-0.2379
 31
0.0000
  0
LINE
  8
0
 10
0.2379
 20
-0.4500
 30
0.0000
 11
-0.2379
 21
-0.4500
 31
0.0000
  0
LINE
  8
0
 10
-0.4500
 20
-0.2379
 30
0.0000
 11
-0.4500
 21
0.2379
 31
0.0000
  0
ENDBLK
  8
0
  0
BLOCK
  8
0
  2
OCTAGONV
 70
64
 10
0.0000
 20
0.0000
 30
0.0000
  3
OCTAGONV
  0
POLYLINE
  8
0
 66
1
 10
0.0000
 20
0.0000
 30
0.0000
 40
0.0000
 41
0.0000
 70
1
  0
VERTEX
  8
0
 10
-0.5000
 20
-0.2071
 30
0.0000
  0
VERTEX
  8
0
 10
-0.5000
 20
0.2071
 30
0.0000
  0
VERTEX
  8
0
 10
-0.2071
 20
0.5000
 30
0.0000
  0
VERTEX
  8
0
 10
0.2071
 20
0.5000
 30
0.0000
  0
VERTEX
  8
0
 10
0.5000
 20
0.2071
 30
0.0000
  0
VERTEX
  8
0
 10
0.5000
 20
-0.2071
 30
0.0000
  0
VERTEX
  8
0
 10
0.2071
 20
-0.5000
 30
0.0000
  0
VERTEX
  8
0
 10
-0.2071
 20
-0.5000
 30
0.0000
  0
SEQEND
  8
0
  0
ENDBLK
  8
0
  0
BLOCK
  8
0
  2
SQUAREV
 70
64
 10
0.0000
 20
0.0000
 30
0.0000
  3
SQUAREV
  0
SOLID
  8
0
 10
-0.5000
 20
-0.5000
 30
0.0000
 11
0.5000
 21
-0.5000
 31
0.0000
 12
-0.5000
 22
0.5000
 32
0.0000
 13
0.5000
 23
0.5000
 33
0.0000
  0
ENDBLK
  8
0
  0
BLOCK
  8
0
  2
ROUNDV
 70
64
 10
0.0000
 20
0.0000
 30
0.0000
  3
ROUNDV
  0
CIRCLE
  8
0
 10
0.0000
 20
0.0000
 30
0.0000
 40
0.5000
  0
ENDBLK
  8
0
  0
BLOCK
  8
0
  2
ANNULUSV
 70
64
 10
0.0000
 20
0.0000
 30
0.0000
  3
ANNULUSV
  0
CIRCLE
  8
0
 10
0.0000
 20
0.0000
 30
0.0000
 40
0.5000
  0
ENDBLK
  8
0
  0
BLOCK
  8
0
  2
THERMALV
 70
64
 10
0.0000
 20
0.0000
 30
0.0000
  3
THERMALV
  0
LINE
  8
0
 10
-0.2379
 20
0.4500
 30
0.0000
 11
0.2379
 21
0.4500
 31
0.0000
  0
LINE
  8
0
 10
0.4500
 20
0.2379
 30
0.0000
 11
0.4500
 21
-0.2379
 31
0.0000
  0
LINE
  8
0
 10
0.2379
 20
-0.4500
 30
0.0000
 11
-0.2379
 21
-0.4500
 31
0.0000
  0
LINE
  8
0
 10
-0.4500
 20
-0.2379
 30
0.0000
 11
-0.4500
 21
0.2379
 31
0.0000
  0
ENDBLK
  8
0
  0
ENDSEC
  0
SECTION
  2
ENTITIES
  0
LINE
  8
20
 10
0.0000
 20
0.0000
 30
0.0000
 11
14.0000
 21
0.0000
 31
0.0000
  0
LINE
  8
20
 10
0.0000
 20
53.0000
 30
0.0000
 11
0.0000
 21
0.0000
 31
0.0000
  0
LINE
  8
20
 10
14.0000
 20
0.0000
 30
0.0000
 11
14.0000
 21
53.0000
 31
0.0000
  0
LINE
  8
20
 10
14.0000
 20
53.0000
 30
0.0000
 11
0.0000
 21
53.0000
 31
0.0000
  0
LINE
  8
21
 10
6.1913
 20
5.0800
 30
0.0000
 11
8.5725
 21
5.0800
 31
0.0000
  0
LINE
  8
21
 10
8.5725
 20
5.0800
 30
0.0000
 11
10.0013
 21
6.5088
 31
0.0000
  0
LINE
  8
21
 10
10.0013
 20
6.5088
 30
0.0000
 11
10.0013
 21
13.3350
 31
0.0000
  0
LINE
  8
21
 10
6.8262
 20
5.7150
 30
0.0000
 11
6.1913
 21
5.0800
 31
0.0000
  0
LINE
  8
21
 10
6.1913
 20
5.0800
 30
0.0000
 11
6.8262
 21
4.4450
 31
0.0000
  0
LINE
  8
21
 10
13.1905
 20
39.6317
 30
0.0000
 11
12.0221
 21
39.2422
 31
0.0000
  0
LINE
  8
21
 10
12.0221
 20
39.2422
 30
0.0000
 11
13.1905
 21
38.8528
 31
0.0000
  0
LINE
  8
21
 10
13.1905
 20
38.3278
 30
0.0000
 11
12.0221
 21
38.3278
 31
0.0000
  0
LINE
  8
21
 10
12.0221
 20
38.4577
 30
0.0000
 11
12.0221
 21
38.1980
 31
0.0000
  0
LINE
  8
21
 10
13.1905
 20
38.4577
 30
0.0000
 11
13.1905
 21
38.1980
 31
0.0000
  0
LINE
  8
21
 10
12.0221
 20
37.2220
 30
0.0000
 11
12.0221
 21
37.4817
 31
0.0000
  0
ARC
  8
21
 10
12.2817
 20
37.4817
 30
0.0000
 40
0.2596
 50
90.0000
 51
180.0000
  0
LINE
  8
21
 10
12.2817
 20
37.7413
 30
0.0000
 11
12.9308
 21
37.7413
 31
0.0000
  0
ARC
  8
21
 10
12.9308
 20
37.4817
 30
0.0000
 40
0.2596
 50
0.0007
 51
90.0000
  0
LINE
  8
21
 10
13.1905
 20
37.4817
 30
0.0000
 11
13.1905
 21
37.2220
 31
0.0000
  0
LINE
  8
21
 10
12.4764
 20
36.7742
 30
0.0000
 11
12.4764
 21
35.9953
 31
0.0000
  0
ARC
  8
21
 10
12.8984
 20
35.1331
 30
0.0000
 40
0.2921
 50
270.0000
 51
0.0000
  0
ARC
  8
21
 10
12.8152
 20
35.1331
 30
0.0000
 40
0.3753
 50
359.9999
 51
72.0556
  0
ARC
  8
21
 10
12.8984
 20
35.1547
 30
0.0000
 40
0.3137
 50
223.6038
 51
269.9998
  0
LINE
  8
21
 10
12.6712
 20
34.9383
 30
0.0000
 11
12.0221
 21
35.4901
 31
0.0000
  0
LINE
  8
21
 10
12.0221
 20
35.4901
 30
0.0000
 11
12.0221
 21
34.8410
 31
0.0000
  0
ARC
  8
21
 10
12.6063
 20
33.3842
 30
0.0000
 40
0.9629
 50
64.0109
 51
90.0001
  0
ARC
  8
21
 10
12.9503
 20
34.0225
 30
0.0000
 40
0.2402
 50
360.0000
 51
71.0751
  0
ARC
  8
21
 10
12.9503
 20
34.0225
 30
0.0000
 40
0.2402
 50
288.9259
 51
359.9998
  0
ARC
  8
21
 10
12.6063
 20
34.6608
 30
0.0000
 40
0.9628
 50
269.9999
 51
295.9891
  0
ARC
  8
21
 10
12.6063
 20
33.3842
 30
0.0000
 40
0.9629
 50
90.0000
 51
115.9888
  0
ARC
  8
21
 10
12.2622
 20
34.0225
 30
0.0000
 40
0.2402
 50
108.9254
 51
179.9998
  0
ARC
  8
21
 10
12.6063
 20
34.6609
 30
0.0000
 40
0.9629
 50
244.0112
 51
270.0000
  0
ARC
  8
21
 10
12.2622
 20
34.0225
 30
0.0000
 40
0.2402
 50
180.0000
 51
251.0733
  0
LINE
  8
21
 10
12.2817
 20
34.2822
 30
0.0000
 11
12.9308
 21
33.7629
 31
0.0000
  0
LINE
  8
21
 10
12.0221
 20
32.5564
 30
0.0000
 11
13.1905
 21
32.5564
 31
0.0000
  0
LINE
  8
21
 10
13.1905
 20
32.5564
 30
0.0000
 11
13.1905
 21
32.2318
 31
0.0000
  0
ARC
  8
21
 10
12.8659
 20
32.2318
 30
0.0000
 40
0.3246
 50
270.0000
 51
0.0000
  0
LINE
  8
21
 10
12.8659
 20
31.9073
 30
0.0000
 11
12.3466
 21
31.9073
 31
0.0000
  0
ARC
  8
21
 10
12.3466
 20
32.2318
 30
0.0000
 40
0.3246
 50
180.0000
 51
270.0000
  0
LINE
  8
21
 10
12.0221
 20
32.2318
 30
0.0000
 11
12.0221
 21
32.5564
 31
0.0000
  0
LINE
  8
21
 10
12.0221
 20
31.3936
 30
0.0000
 11
12.8010
 21
31.3936
 31
0.0000
  0
LINE
  8
21
 10
13.1255
 20
31.4261
 30
0.0000
 11
13.1905
 21
31.4261
 31
0.0000
  0
LINE
  8
21
 10
13.1905
 20
31.4261
 30
0.0000
 11
13.1905
 21
31.3612
 31
0.0000
  0
LINE
  8
21
 10
13.1905
 20
31.3612
 30
0.0000
 11
13.1255
 21
31.3612
 31
0.0000
  0
LINE
  8
21
 10
13.1255
 20
31.3612
 30
0.0000
 11
13.1255
 21
31.4261
 31
0.0000
  0
LINE
  8
21
 10
12.4764
 20
30.4160
 30
0.0000
 11
12.4764
 21
30.7081
 31
0.0000
  0
ARC
  8
21
 10
12.2492
 20
30.7081
 30
0.0000
 40
0.2272
 50
0.0000
 51
180.0000
  0
LINE
  8
21
 10
12.0221
 20
30.7081
 30
0.0000
 11
12.0221
 21
30.4160
 31
0.0000
  0
LINE
  8
21
 10
12.0221
 20
30.4160
 30
0.0000
 11
12.6063
 21
30.4160
 31
0.0000
  0
ARC
  8
21
 10
12.6063
 20
30.6107
 30
0.0000
 40
0.1947
 50
270.0000
 51
0.0009
  0
LINE
  8
21
 10
12.8010
 20
30.6107
 30
0.0000
 11
12.8010
 21
30.8704
 31
0.0000
  0
LINE
  8
21
 10
12.0221
 20
29.3873
 30
0.0000
 11
12.0221
 21
29.7119
 31
0.0000
  0
ARC
  8
21
 10
12.2168
 20
29.7119
 30
0.0000
 40
0.1947
 50
90.0000
 51
180.0000
  0
LINE
  8
21
 10
12.2168
 20
29.9066
 30
0.0000
 11
12.6063
 21
29.9066
 31
0.0000
  0
ARC
  8
21
 10
12.6063
 20
29.7119
 30
0.0000
 40
0.1947
 50
0.0000
 51
90.0000
  0
LINE
  8
21
 10
12.8010
 20
29.7119
 30
0.0000
 11
12.8010
 21
29.3873
 31
0.0000
  0
LINE
  8
21
 10
12.8010
 20
29.3873
 30
0.0000
 11
11.8273
 21
29.3873
 31
0.0000
  0
ARC
  8
21
 10
11.8273
 20
29.5820
 30
0.0000
 40
0.1947
 50
180.0000
 51
270.0000
  0
LINE
  8
21
 10
11.6326
 20
29.5820
 30
0.0000
 11
11.6326
 21
29.8417
 31
0.0000
  0
LINE
  8
21
 10
12.0221
 20
28.8339
 30
0.0000
 11
12.8010
 21
28.8339
 31
0.0000
  0
LINE
  8
21
 10
12.8010
 20
28.8339
 30
0.0000
 11
12.8010
 21
28.5093
 31
0.0000
  0
ARC
  8
21
 10
12.6062
 20
28.5093
 30
0.0000
 40
0.1947
 50
270.0018
 51
360.0000
  0
LINE
  8
21
 10
12.6063
 20
28.3146
 30
0.0000
 11
12.0221
 21
28.3146
 31
0.0000
  0
LINE
  8
21
 10
12.2817
 20
27.8052
 30
0.0000
 11
12.5413
 21
27.8052
 31
0.0000
  0
ARC
  8
21
 10
12.5413
 20
27.5456
 30
0.0000
 40
0.2596
 50
270.0000
 51
90.0000
  0
LINE
  8
21
 10
12.5413
 20
27.2859
 30
0.0000
 11
12.2817
 21
27.2859
 31
0.0000
  0
ARC
  8
21
 10
12.2817
 20
27.5456
 30
0.0000
 40
0.2596
 50
90.0000
 51
270.0000
  0
LINE
  8
21
 10
12.3466
 20
26.3927
 30
0.0000
 11
12.4764
 21
26.7172
 31
0.0000
  0
ARC
  8
21
 10
12.6327
 20
26.6547
 30
0.0000
 40
0.1683
 50
359.1818
 51
158.1989
  0
ARC
  8
21
 10
12.0639
 20
26.6628
 30
0.0000
 40
0.7371
 50
335.7612
 51
359.1819
  0
ARC
  8
21
 10
12.1903
 20
26.4552
 30
0.0000
 40
0.1683
 50
179.1818
 51
338.1989
  0
ARC
  8
21
 10
13.1228
 20
26.4419
 30
0.0000
 40
1.1008
 50
160.2090
 51
179.1819
  0
LINE
  8
21
 10
12.8010
 20
25.9207
 30
0.0000
 11
12.8010
 21
25.5313
 31
0.0000
  0
LINE
  8
21
 10
13.1905
 20
25.7909
 30
0.0000
 11
12.2168
 21
25.7909
 31
0.0000
  0
ARC
  8
21
 10
12.2168
 20
25.5962
 30
0.0000
 40
0.1947
 50
90.0000
 51
180.0000
  0
LINE
  8
21
 10
12.0221
 20
25.5962
 30
0.0000
 11
12.0221
 21
25.5313
 31
0.0000
  0
LINE
  8
21
 10
12.0221
 20
25.1072
 30
0.0000
 11
12.8010
 21
25.1072
 31
0.0000
  0
LINE
  8
21
 10
13.1255
 20
25.1396
 30
0.0000
 11
13.1905
 21
25.1396
 31
0.0000
  0
LINE
  8
21
 10
13.1905
 20
25.1396
 30
0.0000
 11
13.1905
 21
25.0747
 31
0.0000
  0
LINE
  8
21
 10
13.1905
 20
25.0747
 30
0.0000
 11
13.1255
 21
25.0747
 31
0.0000
  0
LINE
  8
21
 10
13.1255
 20
25.0747
 30
0.0000
 11
13.1255
 21
25.1396
 31
0.0000
  0
LINE
  8
21
 10
12.0221
 20
24.1872
 30
0.0000
 11
12.0221
 21
24.4468
 31
0.0000
  0
ARC
  8
21
 10
12.2168
 20
24.4468
 30
0.0000
 40
0.1947
 50
90.0000
 51
180.0000
  0
LINE
  8
21
 10
12.2168
 20
24.6416
 30
0.0000
 11
12.6063
 21
24.6416
 31
0.0000
  0
ARC
  8
21
 10
12.6063
 20
24.4468
 30
0.0000
 40
0.1947
 50
0.0000
 51
90.0000
  0
LINE
  8
21
 10
12.8010
 20
24.4468
 30
0.0000
 11
12.8010
 21
24.1872
 31
0.0000
  0
LINE
  8
21
 10
10.1171
 20
39.6317
 30
0.0000
 11
11.2855
 21
39.6317
 31
0.0000
  0
LINE
  8
21
 10
11.2855
 20
38.9826
 30
0.0000
 11
10.5714
 21
39.6317
 31
0.0000
  0
LINE
  8
21
 10
10.1171
 20
38.9826
 30
0.0000
 11
10.8311
 21
39.3721
 31
0.0000
  0
LINE
  8
21
 10
10.1171
 20
38.0357
 30
0.0000
 11
10.1171
 21
38.3603
 31
0.0000
  0
ARC
  8
21
 10
10.3118
 20
38.3603
 30
0.0000
 40
0.1947
 50
90.0000
 51
180.0000
  0
LINE
  8
21
 10
10.3118
 20
38.5550
 30
0.0000
 11
10.6363
 21
38.5550
 31
0.0000
  0
ARC
  8
21
 10
10.6363
 20
38.2954
 30
0.0000
 40
0.2596
 50
270.0000
 51
90.0000
  0
LINE
  8
21
 10
10.6363
 20
38.0357
 30
0.0000
 11
10.5065
 21
38.0357
 31
0.0000
  0
LINE
  8
21
 10
10.5065
 20
38.0357
 30
0.0000
 11
10.5065
 21
38.5550
 31
0.0000
  0
LINE
  8
21
 10
9.7276
 20
37.6025
 30
0.0000
 11
9.7276
 21
37.4727
 31
0.0000
  0
LINE
  8
21
 10
9.7276
 20
37.4727
 30
0.0000
 11
10.8960
 21
37.0832
 31
0.0000
  0
LINE
  8
21
 10
10.8960
 20
37.6025
 30
0.0000
 11
10.1171
 21
37.3429
 31
0.0000
  0
LINE
  8
21
 10
11.2855
 20
36.6060
 30
0.0000
 11
10.1171
 21
36.6060
 31
0.0000
  0
LINE
  8
21
 10
10.1171
 20
36.6060
 30
0.0000
 11
10.1171
 21
36.2815
 31
0.0000
  0
ARC
  8
21
 10
10.3118
 20
36.2815
 30
0.0000
 40
0.1947
 50
180.0000
 51
269.9982
  0
LINE
  8
21
 10
10.3118
 20
36.0868
 30
0.0000
 11
10.7012
 21
36.0868
 31
0.0000
  0
ARC
  8
21
 10
10.7012
 20
36.2815
 30
0.0000
 40
0.1947
 50
270.0000
 51
0.0009
  0
LINE
  8
21
 10
10.8960
 20
36.2815
 30
0.0000
 11
10.8960
 21
36.6060
 31
0.0000
  0
LINE
  8
21
 10
10.3767
 20
35.6213
 30
0.0000
 11
10.6363
 21
35.6213
 31
0.0000
  0
ARC
  8
21
 10
10.6363
 20
35.3617
 30
0.0000
 40
0.2596
 50
270.0000
 51
90.0000
  0
LINE
  8
21
 10
10.6363
 20
35.1020
 30
0.0000
 11
10.3767
 21
35.1020
 31
0.0000
  0
ARC
  8
21
 10
10.3767
 20
35.3617
 30
0.0000
 40
0.2596
 50
90.0000
 51
270.0000
  0
LINE
  8
21
 10
10.5714
 20
34.1173
 30
0.0000
 11
10.5714
 21
34.4094
 31
0.0000
  0
ARC
  8
21
 10
10.3442
 20
34.4094
 30
0.0000
 40
0.2272
 50
0.0000
 51
180.0000
  0
LINE
  8
21
 10
10.1171
 20
34.4094
 30
0.0000
 11
10.1171
 21
34.1173
 31
0.0000
  0
LINE
  8
21
 10
10.1171
 20
34.1173
 30
0.0000
 11
10.7012
 21
34.1173
 31
0.0000
  0
ARC
  8
21
 10
10.7012
 20
34.3121
 30
0.0000
 40
0.1947
 50
270.0000
 51
0.0009
  0
LINE
  8
21
 10
10.8960
 20
34.3121
 30
0.0000
 11
10.8960
 21
34.5717
 31
0.0000
  0
LINE
  8
21
 10
10.1171
 20
33.5573
 30
0.0000
 11
10.8960
 21
33.5573
 31
0.0000
  0
LINE
  8
21
 10
10.8960
 20
33.5573
 30
0.0000
 11
10.8960
 21
33.1678
 31
0.0000
  0
LINE
  8
21
 10
10.8960
 20
33.1678
 30
0.0000
 11
10.7662
 21
33.1678
 31
0.0000
  0
LINE
  8
21
 10
11.2855
 20
32.2885
 30
0.0000
 11
10.1171
 21
32.2885
 31
0.0000
  0
LINE
  8
21
 10
10.1171
 20
32.2885
 30
0.0000
 11
10.1171
 21
32.6131
 31
0.0000
  0
ARC
  8
21
 10
10.3118
 20
32.6131
 30
0.0000
 40
0.1947
 50
90.0000
 51
180.0000
  0
LINE
  8
21
 10
10.3118
 20
32.8078
 30
0.0000
 11
10.7012
 21
32.8078
 31
0.0000
  0
ARC
  8
21
 10
10.7012
 20
32.6131
 30
0.0000
 40
0.1947
 50
0.0000
 51
90.0000
  0
LINE
  8
21
 10
10.8960
 20
32.6131
 30
0.0000
 11
10.8960
 21
32.2885
 31
0.0000
  0
LINE
  8
21
 10
10.1171
 20
31.1142
 30
0.0000
 11
11.2855
 21
31.1142
 31
0.0000
  0
LINE
  8
21
 10
11.2855
 20
31.1142
 30
0.0000
 11
11.2855
 21
30.7897
 31
0.0000
  0
ARC
  8
21
 10
10.9609
 20
30.7897
 30
0.0000
 40
0.3246
 50
270.0000
 51
0.0000
  0
LINE
  8
21
 10
10.9609
 20
30.4651
 30
0.0000
 11
10.4416
 21
30.4651
 31
0.0000
  0
ARC
  8
21
 10
10.4416
 20
30.7897
 30
0.0000
 40
0.3246
 50
180.0000
 51
270.0000
  0
LINE
  8
21
 10
10.1171
 20
30.7897
 30
0.0000
 11
10.1171
 21
31.1142
 31
0.0000
  0
LINE
  8
21
 10
10.3767
 20
29.9444
 30
0.0000
 11
10.6363
 21
29.9444
 31
0.0000
  0
ARC
  8
21
 10
10.6363
 20
29.6848
 30
0.0000
 40
0.2596
 50
270.0000
 51
90.0000
  0
LINE
  8
21
 10
10.6363
 20
29.4252
 30
0.0000
 11
10.3767
 21
29.4252
 31
0.0000
  0
ARC
  8
21
 10
10.3767
 20
29.6848
 30
0.0000
 40
0.2596
 50
90.0000
 51
270.0000
  0
LINE
  8
21
 10
10.1171
 20
28.9157
 30
0.0000
 11
10.8960
 21
28.9157
 31
0.0000
  0
LINE
  8
21
 10
10.8960
 20
28.9157
 30
0.0000
 11
10.8960
 21
28.5912
 31
0.0000
  0
ARC
  8
21
 10
10.7012
 20
28.5912
 30
0.0000
 40
0.1947
 50
270.0018
 51
360.0000
  0
LINE
  8
21
 10
10.7012
 20
28.3965
 30
0.0000
 11
10.1171
 21
28.3965
 31
0.0000
  0
LINE
  8
21
 10
10.1171
 20
27.3736
 30
0.0000
 11
10.1171
 21
27.6982
 31
0.0000
  0
ARC
  8
21
 10
10.3118
 20
27.6982
 30
0.0000
 40
0.1947
 50
90.0000
 51
180.0000
  0
LINE
  8
21
 10
10.3118
 20
27.8929
 30
0.0000
 11
10.7012
 21
27.8929
 31
0.0000
  0
ARC
  8
21
 10
10.7012
 20
27.6982
 30
0.0000
 40
0.1947
 50
0.0000
 51
90.0000
  0
LINE
  8
21
 10
10.8960
 20
27.6982
 30
0.0000
 11
10.8960
 21
27.3736
 31
0.0000
  0
LINE
  8
21
 10
10.8960
 20
27.3736
 30
0.0000
 11
9.9223
 21
27.3736
 31
0.0000
  0
ARC
  8
21
 10
9.9223
 20
27.5684
 30
0.0000
 40
0.1947
 50
180.0000
 51
270.0000
  0
LINE
  8
21
 10
9.7276
 20
27.5684
 30
0.0000
 11
9.7276
 21
27.8280
 31
0.0000
  0
LINE
  8
21
 10
11.2855
 20
26.8434
 30
0.0000
 11
10.3118
 21
26.8434
 31
0.0000
  0
ARC
  8
21
 10
10.3118
 20
26.6487
 30
0.0000
 40
0.1947
 50
90.0000
 51
180.0000
  0
LINE
  8
21
 10
10.1171
 20
25.7295
 30
0.0000
 11
10.1171
 21
26.0540
 31
0.0000
  0
ARC
  8
21
 10
10.3118
 20
26.0540
 30
0.0000
 40
0.1947
 50
90.0000
 51
180.0000
  0
LINE
  8
21
 10
10.3118
 20
26.2487
 30
0.0000
 11
10.6363
 21
26.2487
 31
0.0000
  0
ARC
  8
21
 10
10.6363
 20
25.9891
 30
0.0000
 40
0.2596
 50
270.0000
 51
90.0000
  0
LINE
  8
21
 10
10.6363
 20
25.7295
 30
0.0000
 11
10.5065
 21
25.7295
 31
0.0000
  0
LINE
  8
21
 10
10.5065
 20
25.7295
 30
0.0000
 11
10.5065
 21
26.2487
 31
0.0000
  0
LINE
  8
21
 10
10.1171
 20
24.5918
 30
0.0000
 11
11.2855
 21
24.5918
 31
0.0000
  0
LINE
  8
21
 10
11.2855
 20
24.5918
 30
0.0000
 11
11.2855
 21
24.2672
 31
0.0000
  0
ARC
  8
21
 10
10.9609
 20
24.2672
 30
0.0000
 40
0.3246
 50
180.0000
 51
0.0000
  0
LINE
  8
21
 10
10.6363
 20
24.2672
 30
0.0000
 11
10.6363
 21
24.5918
 31
0.0000
  0
LINE
  8
21
 10
10.1171
 20
23.9427
 30
0.0000
 11
10.6363
 21
24.2023
 31
0.0000
  0
LINE
  8
21
 10
10.1171
 20
22.9482
 30
0.0000
 11
10.1171
 21
23.2727
 31
0.0000
  0
ARC
  8
21
 10
10.3118
 20
23.2727
 30
0.0000
 40
0.1947
 50
90.0000
 51
180.0000
  0
LINE
  8
21
 10
10.3118
 20
23.4674
 30
0.0000
 11
10.6363
 21
23.4674
 31
0.0000
  0
ARC
  8
21
 10
10.6363
 20
23.2078
 30
0.0000
 40
0.2596
 50
270.0000
 51
90.0000
  0
LINE
  8
21
 10
10.6363
 20
22.9482
 30
0.0000
 11
10.5065
 21
22.9482
 31
0.0000
  0
LINE
  8
21
 10
10.5065
 20
22.9482
 30
0.0000
 11
10.5065
 21
23.4674
 31
0.0000
  0
LINE
  8
21
 10
10.8960
 20
22.5149
 30
0.0000
 11
10.1171
 21
22.2553
 31
0.0000
  0
LINE
  8
21
 10
10.1171
 20
22.2553
 30
0.0000
 11
10.8960
 21
21.9957
 31
0.0000
  0
LINE
  8
21
 10
10.1171
 20
21.6020
 30
0.0000
 11
10.1820
 21
21.6020
 31
0.0000
  0
LINE
  8
21
 10
10.1820
 20
21.6020
 30
0.0000
 11
10.1820
 21
21.5371
 31
0.0000
  0
LINE
  8
21
 10
10.1820
 20
21.5371
 30
0.0000
 11
10.1171
 21
21.5371
 31
0.0000
  0
LINE
  8
21
 10
10.1171
 20
21.5371
 30
0.0000
 11
10.1171
 21
21.6020
 31
0.0000
  0
ARC
  8
21
 10
10.7012
 20
19.5215
 30
0.0000
 40
0.9629
 50
64.0109
 51
90.0001
  0
ARC
  8
21
 10
11.0453
 20
20.1598
 30
0.0000
 40
0.2402
 50
360.0000
 51
71.0751
  0
ARC
  8
21
 10
11.0453
 20
20.1598
 30
0.0000
 40
0.2402
 50
288.9259
 51
359.9998
  0
ARC
  8
21
 10
10.7013
 20
20.7981
 30
0.0000
 40
0.9628
 50
269.9999
 51
295.9891
  0
ARC
  8
21
 10
10.7012
 20
19.5215
 30
0.0000
 40
0.9629
 50
90.0000
 51
115.9888
  0
ARC
  8
21
 10
10.3572
 20
20.1598
 30
0.0000
 40
0.2402
 50
108.9254
 51
179.9998
  0
ARC
  8
21
 10
10.7012
 20
20.7981
 30
0.0000
 40
0.9629
 50
244.0112
 51
270.0000
  0
ARC
  8
21
 10
10.3572
 20
20.1598
 30
0.0000
 40
0.2402
 50
180.0000
 51
251.0733
  0
LINE
  8
21
 10
10.3767
 20
20.4195
 30
0.0000
 11
11.0258
 21
19.9002
 31
0.0000
  0
LINE
  8
21
 10
10.3949
 20
13.2588
 30
0.0000
 11
12.0206
 21
13.2588
 31
0.0000
  0
LINE
  8
21
 10
12.0206
 20
13.2588
 30
0.0000
 11
10.3949
 21
12.3557
 31
0.0000
  0
LINE
  8
21
 10
10.3949
 20
12.3557
 30
0.0000
 11
12.0206
 21
12.3557
 31
0.0000
  0
LINE
  8
21
 10
10.7562
 20
11.6575
 30
0.0000
 11
11.1174
 21
11.6575
 31
0.0000
  0
ARC
  8
21
 10
11.1174
 20
11.2962
 30
0.0000
 40
0.3612
 50
270.0000
 51
90.0000
  0
LINE
  8
21
 10
11.1174
 20
10.9350
 30
0.0000
 11
10.7562
 21
10.9350
 31
0.0000
  0
ARC
  8
21
 10
10.7562
 20
11.2962
 30
0.0000
 40
0.3612
 50
90.0000
 51
270.0000
  0
LINE
  8
21
 10
10.3949
 20
9.3820
 30
0.0000
 11
12.0206
 21
9.3820
 31
0.0000
  0
LINE
  8
21
 10
12.0206
 20
9.3820
 30
0.0000
 11
12.0206
 21
8.9304
 31
0.0000
  0
ARC
  8
21
 10
11.5690
 20
8.9304
 30
0.0000
 40
0.4516
 50
180.0000
 51
0.0000
  0
LINE
  8
21
 10
11.1174
 20
8.9304
 30
0.0000
 11
11.1174
 21
9.3820
 31
0.0000
  0
LINE
  8
21
 10
10.3949
 20
7.9095
 30
0.0000
 11
11.4787
 21
7.9095
 31
0.0000
  0
LINE
  8
21
 10
11.9302
 20
7.9546
 30
0.0000
 11
12.0206
 21
7.9546
 31
0.0000
  0
LINE
  8
21
 10
12.0206
 20
7.9546
 30
0.0000
 11
12.0206
 21
7.8643
 31
0.0000
  0
LINE
  8
21
 10
12.0206
 20
7.8643
 30
0.0000
 11
11.9302
 21
7.8643
 31
0.0000
  0
LINE
  8
21
 10
11.9302
 20
7.8643
 30
0.0000
 11
11.9302
 21
7.9546
 31
0.0000
  0
LINE
  8
21
 10
10.3949
 20
7.2286
 30
0.0000
 11
11.4787
 21
7.2286
 31
0.0000
  0
LINE
  8
21
 10
11.4787
 20
7.2286
 30
0.0000
 11
11.4787
 21
6.7771
 31
0.0000
  0
ARC
  8
21
 10
11.2077
 20
6.7771
 30
0.0000
 40
0.2709
 50
270.0013
 51
360.0000
  0
LINE
  8
21
 10
11.2078
 20
6.5061
 30
0.0000
 11
10.3949
 21
6.5061
 31
0.0000
  0
ARC
  8
48
 10
3.6911
 20
73.4448
 30
0.0000
 40
0.3500
 50
269.9995
 51
0.0000
  0
ARC
  8
48
 10
3.6911
 20
73.8341
 30
0.0000
 40
0.7393
 50
224.7606
 51
269.9996
  0
ARC
  8
48
 10
3.5598
 20
74.3197
 30
0.0000
 40
0.3500
 50
90.0000
 51
180.0000
  0
ARC
  8
48
 10
3.5598
 20
74.0135
 30
0.0000
 40
0.6562
 50
53.1299
 51
89.9999
  0
ARC
  8
48
 10
3.5653
 20
74.3197
 30
0.0000
 40
0.3554
 50
180.0000
 51
239.4897
  0
ARC
  8
48
 10
3.6856
 20
73.4448
 30
0.0000
 40
0.3554
 50
0.0002
 51
59.4895
  0
LINE
  8
48
 10
3.8661
 20
73.7510
 30
0.0000
 11
3.3849
 21
74.0135
 31
0.0000
  0
LINE
  8
48
 10
4.6083
 20
74.1447
 30
0.0000
 11
4.9583
 21
73.0949
 31
0.0000
  0
LINE
  8
48
 10
4.9583
 20
73.0949
 30
0.0000
 11
5.3083
 21
74.1447
 31
0.0000
  0
LINE
  8
48
 10
6.6109
 20
73.0949
 30
0.0000
 11
6.1734
 21
73.0949
 31
0.0000
  0
ARC
  8
48
 10
6.1734
 20
73.3573
 30
0.0000
 40
0.2625
 50
180.0000
 51
270.0000
  0
LINE
  8
48
 10
5.9109
 20
73.3573
 30
0.0000
 11
5.9109
 21
73.7948
 31
0.0000
  0
ARC
  8
48
 10
6.2609
 20
73.7948
 30
0.0000
 40
0.3500
 50
0.0000
 51
180.0000
  0
LINE
  8
48
 10
6.6109
 20
73.7948
 30
0.0000
 11
6.6109
 21
73.6198
 31
0.0000
  0
LINE
  8
48
 10
6.6109
 20
73.6198
 30
0.0000
 11
5.9109
 21
73.6198
 31
0.0000
  0
LINE
  8
48
 10
7.3178
 20
73.0949
 30
0.0000
 11
7.3178
 21
74.1447
 31
0.0000
  0
LINE
  8
48
 10
7.3178
 20
74.1447
 30
0.0000
 11
7.7552
 21
74.1447
 31
0.0000
  0
ARC
  8
48
 10
7.7552
 20
73.8822
 30
0.0000
 40
0.2625
 50
0.0000
 51
90.0000
  0
LINE
  8
48
 10
8.0177
 20
73.8822
 30
0.0000
 11
8.0177
 21
73.0949
 31
0.0000
  0
LINE
  8
48
 10
9.6524
 20
73.0949
 30
0.0000
 11
9.6524
 21
74.6697
 31
0.0000
  0
LINE
  8
48
 10
9.6524
 20
74.6697
 30
0.0000
 11
10.0899
 21
74.6697
 31
0.0000
  0
ARC
  8
48
 10
10.0899
 20
74.2322
 30
0.0000
 40
0.4374
 50
270.0000
 51
90.0000
  0
LINE
  8
48
 10
10.0899
 20
73.7948
 30
0.0000
 11
9.6524
 21
73.7948
 31
0.0000
  0
LINE
  8
48
 10
11.8213
 20
73.0949
 30
0.0000
 11
11.3838
 21
73.0949
 31
0.0000
  0
ARC
  8
48
 10
11.3838
 20
73.3573
 30
0.0000
 40
0.2625
 50
180.0000
 51
270.0000
  0
LINE
  8
48
 10
11.1214
 20
73.3573
 30
0.0000
 11
11.1214
 21
73.7948
 31
0.0000
  0
ARC
  8
48
 10
11.4713
 20
73.7948
 30
0.0000
 40
0.3500
 50
0.0000
 51
180.0000
  0
LINE
  8
48
 10
11.8213
 20
73.7948
 30
0.0000
 11
11.8213
 21
73.6198
 31
0.0000
  0
LINE
  8
48
 10
11.8213
 20
73.6198
 30
0.0000
 11
11.1214
 21
73.6198
 31
0.0000
  0
LINE
  8
48
 10
12.3412
 20
74.1447
 30
0.0000
 11
12.8661
 21
74.1447
 31
0.0000
  0
LINE
  8
48
 10
12.5161
 20
74.6697
 30
0.0000
 11
12.5161
 21
73.3573
 31
0.0000
  0
ARC
  8
48
 10
12.7786
 20
73.3573
 30
0.0000
 40
0.2625
 50
180.0000
 51
270.0000
  0
LINE
  8
48
 10
12.7786
 20
73.0949
 30
0.0000
 11
12.8661
 21
73.0949
 31
0.0000
  0
LINE
  8
48
 10
14.1659
 20
73.0949
 30
0.0000
 11
13.7285
 21
73.0949
 31
0.0000
  0
ARC
  8
48
 10
13.7285
 20
73.3573
 30
0.0000
 40
0.2625
 50
180.0000
 51
270.0000
  0
LINE
  8
48
 10
13.4660
 20
73.3573
 30
0.0000
 11
13.4660
 21
73.7948
 31
0.0000
  0
ARC
  8
48
 10
13.8160
 20
73.7948
 30
0.0000
 40
0.3500
 50
0.0000
 51
180.0000
  0
LINE
  8
48
 10
14.1659
 20
73.7948
 30
0.0000
 11
14.1659
 21
73.6198
 31
0.0000
  0
LINE
  8
48
 10
14.1659
 20
73.6198
 30
0.0000
 11
13.4660
 21
73.6198
 31
0.0000
  0
LINE
  8
48
 10
14.8831
 20
73.0949
 30
0.0000
 11
14.8831
 21
74.1447
 31
0.0000
  0
LINE
  8
48
 10
14.8831
 20
74.1447
 30
0.0000
 11
15.4080
 21
74.1447
 31
0.0000
  0
LINE
  8
48
 10
15.4080
 20
74.1447
 30
0.0000
 11
15.4080
 21
73.9697
 31
0.0000
  0
LINE
  8
48
 10
16.4836
 20
73.5323
 30
0.0000
 11
16.0462
 21
73.7073
 31
0.0000
  0
ARC
  8
48
 10
16.1304
 20
73.9179
 30
0.0000
 40
0.2268
 50
89.1807
 51
248.1990
  0
ARC
  8
48
 10
16.1194
 20
73.1512
 30
0.0000
 40
0.9936
 50
65.7612
 51
89.1807
  0
ARC
  8
48
 10
16.3994
 20
73.3217
 30
0.0000
 40
0.2268
 50
269.1807
 51
68.1990
  0
ARC
  8
48
 10
16.4173
 20
74.5786
 30
0.0000
 40
1.4839
 50
250.2099
 51
269.1807
  0
LINE
  8
48
 10
17.9695
 20
73.0949
 30
0.0000
 11
17.5321
 21
73.0949
 31
0.0000
  0
ARC
  8
48
 10
17.5321
 20
73.3573
 30
0.0000
 40
0.2625
 50
180.0000
 51
270.0000
  0
LINE
  8
48
 10
17.2696
 20
73.3573
 30
0.0000
 11
17.2696
 21
73.7948
 31
0.0000
  0
ARC
  8
48
 10
17.6196
 20
73.7948
 30
0.0000
 40
0.3500
 50
0.0000
 51
180.0000
  0
LINE
  8
48
 10
17.9695
 20
73.7948
 30
0.0000
 11
17.9695
 21
73.6198
 31
0.0000
  0
LINE
  8
48
 10
17.9695
 20
73.6198
 30
0.0000
 11
17.2696
 21
73.6198
 31
0.0000
  0
LINE
  8
48
 10
18.6764
 20
73.0949
 30
0.0000
 11
18.6764
 21
74.1447
 31
0.0000
  0
LINE
  8
48
 10
18.6764
 20
74.1447
 30
0.0000
 11
19.1139
 21
74.1447
 31
0.0000
  0
ARC
  8
48
 10
19.1139
 20
73.8822
 30
0.0000
 40
0.2625
 50
0.0000
 51
90.0000
  0
LINE
  8
48
 10
19.3764
 20
73.8822
 30
0.0000
 11
19.3764
 21
73.0949
 31
0.0000
  0
ARC
  8
48
 10
8.9703
 20
71.6090
 30
0.0000
 40
0.3937
 50
0.0000
 51
90.0000
  0
ARC
  8
48
 10
8.9703
 20
71.4969
 30
0.0000
 40
0.5058
 50
90.0000
 51
162.0550
  0
ARC
  8
48
 10
8.9411
 20
71.6090
 30
0.0000
 40
0.4229
 50
313.6028
 51
359.9999
  0
LINE
  8
48
 10
9.2328
 20
71.3027
 30
0.0000
 11
8.4891
 21
70.4279
 31
0.0000
  0
LINE
  8
48
 10
8.4891
 20
70.4279
 30
0.0000
 11
9.3640
 21
70.4279
 31
0.0000
  0
ARC
  8
48
 10
11.3500
 20
71.2152
 30
0.0000
 40
1.2978
 50
154.0111
 51
180.0000
  0
ARC
  8
48
 10
10.4897
 20
71.6789
 30
0.0000
 40
0.3237
 50
90.0000
 51
161.0758
  0
ARC
  8
48
 10
10.4897
 20
71.6789
 30
0.0000
 40
0.3237
 50
18.9235
 51
90.0002
  0
ARC
  8
48
 10
9.6294
 20
71.2152
 30
0.0000
 40
1.2977
 50
0.0000
 51
25.9895
  0
ARC
  8
48
 10
11.3500
 20
71.2152
 30
0.0000
 40
1.2978
 50
180.0001
 51
205.9888
  0
ARC
  8
48
 10
10.4897
 20
70.7516
 30
0.0000
 40
0.3237
 50
198.9248
 51
270.0001
  0
ARC
  8
48
 10
9.6294
 20
71.2153
 30
0.0000
 40
1.2978
 50
334.0107
 51
359.9999
  0
ARC
  8
48
 10
10.4897
 20
70.7516
 30
0.0000
 40
0.3237
 50
270.0000
 51
341.0761
  0
LINE
  8
48
 10
10.1397
 20
70.7778
 30
0.0000
 11
10.8396
 21
71.6527
 31
0.0000
  0
ARC
  8
48
 10
12.0966
 20
71.6090
 30
0.0000
 40
0.3937
 50
0.0000
 51
90.0000
  0
ARC
  8
48
 10
12.0966
 20
71.4969
 30
0.0000
 40
0.5058
 50
90.0000
 51
162.0550
  0
ARC
  8
48
 10
12.0674
 20
71.6090
 30
0.0000
 40
0.4229
 50
313.6028
 51
359.9999
  0
LINE
  8
48
 10
12.3590
 20
71.3027
 30
0.0000
 11
11.6154
 21
70.4279
 31
0.0000
  0
LINE
  8
48
 10
11.6154
 20
70.4279
 30
0.0000
 11
12.4903
 21
70.4279
 31
0.0000
  0
ARC
  8
48
 10
14.4763
 20
71.2152
 30
0.0000
 40
1.2978
 50
154.0111
 51
180.0000
  0
ARC
  8
48
 10
13.6159
 20
71.6789
 30
0.0000
 40
0.3237
 50
90.0000
 51
161.0758
  0
ARC
  8
48
 10
13.6159
 20
71.6789
 30
0.0000
 40
0.3237
 50
18.9235
 51
90.0002
  0
ARC
  8
48
 10
12.7557
 20
71.2152
 30
0.0000
 40
1.2977
 50
0.0000
 51
25.9895
  0
ARC
  8
48
 10
14.4763
 20
71.2152
 30
0.0000
 40
1.2978
 50
180.0001
 51
205.9888
  0
ARC
  8
48
 10
13.6159
 20
70.7516
 30
0.0000
 40
0.3237
 50
198.9248
 51
270.0001
  0
ARC
  8
48
 10
12.7556
 20
71.2153
 30
0.0000
 40
1.2978
 50
334.0107
 51
359.9999
  0
ARC
  8
48
 10
13.6159
 20
70.7516
 30
0.0000
 40
0.3237
 50
270.0000
 51
341.0761
  0
LINE
  8
48
 10
13.2660
 20
70.7778
 30
0.0000
 11
13.9659
 21
71.6527
 31
0.0000
  0
LINE
  8
48
 10
35.1853
 20
74.6689
 30
0.0000
 11
35.6228
 21
75.0189
 31
0.0000
  0
LINE
  8
48
 10
35.6228
 20
75.0189
 30
0.0000
 11
35.6228
 21
73.4441
 31
0.0000
  0
LINE
  8
48
 10
35.1853
 20
73.4441
 30
0.0000
 11
36.0602
 21
73.4441
 31
0.0000
  0
LINE
  8
48
 10
36.7485
 20
73.4441
 30
0.0000
 11
37.2734
 21
73.4441
 31
0.0000
  0
ARC
  8
48
 10
37.2734
 20
73.7941
 30
0.0000
 40
0.3500
 50
270.0000
 51
359.9995
  0
LINE
  8
48
 10
37.6234
 20
73.7941
 30
0.0000
 11
37.6234
 21
73.9690
 31
0.0000
  0
ARC
  8
48
 10
37.2734
 20
73.9690
 30
0.0000
 40
0.3500
 50
0.0000
 51
90.0000
  0
LINE
  8
48
 10
37.2734
 20
74.3190
 30
0.0000
 11
36.7485
 21
74.3190
 31
0.0000
  0
LINE
  8
48
 10
36.7485
 20
74.3190
 30
0.0000
 11
36.7485
 21
75.0189
 31
0.0000
  0
LINE
  8
48
 10
36.7485
 20
75.0189
 30
0.0000
 11
37.6234
 21
75.0189
 31
0.0000
  0
LINE
  8
48
 10
38.3116
 20
74.3190
 30
0.0000
 11
38.8365
 21
74.3190
 31
0.0000
  0
ARC
  8
48
 10
38.8365
 20
73.9690
 30
0.0000
 40
0.3500
 50
0.0000
 51
90.0000
  0
LINE
  8
48
 10
39.1865
 20
73.9690
 30
0.0000
 11
39.1865
 21
73.8815
 31
0.0000
  0
ARC
  8
48
 10
38.7490
 20
73.8815
 30
0.0000
 40
0.4374
 50
180.0000
 51
0.0000
  0
LINE
  8
48
 10
38.3116
 20
73.8815
 30
0.0000
 11
38.3116
 21
74.3190
 31
0.0000
  0
ARC
  8
48
 10
39.0115
 20
74.3190
 30
0.0000
 40
0.6999
 50
90.0003
 51
180.0000
  0
LINE
  8
48
 10
39.8914
 20
74.0565
 30
0.0000
 11
40.9413
 21
74.0565
 31
0.0000
  0
ARC
  8
48
 10
42.1275
 20
74.6252
 30
0.0000
 40
0.3937
 50
0.0000
 51
90.0000
  0
ARC
  8
48
 10
42.1275
 20
74.5131
 30
0.0000
 40
0.5058
 50
90.0000
 51
162.0550
  0
ARC
  8
48
 10
42.0983
 20
74.6252
 30
0.0000
 40
0.4229
 50
313.6028
 51
359.9999
  0
LINE
  8
48
 10
42.3899
 20
74.3190
 30
0.0000
 11
41.6463
 21
73.4441
 31
0.0000
  0
LINE
  8
48
 10
41.6463
 20
73.4441
 30
0.0000
 11
42.5212
 21
73.4441
 31
0.0000
  0
LINE
  8
48
 10
43.2261
 20
74.0565
 30
0.0000
 11
44.2760
 21
74.0565
 31
0.0000
  0
ARC
  8
48
 10
46.2787
 20
74.2315
 30
0.0000
 40
1.2978
 50
154.0111
 51
180.0000
  0
ARC
  8
48
 10
45.4184
 20
74.6952
 30
0.0000
 40
0.3237
 50
90.0000
 51
161.0758
  0
ARC
  8
48
 10
45.4184
 20
74.6952
 30
0.0000
 40
0.3237
 50
18.9235
 51
90.0002
  0
ARC
  8
48
 10
44.5581
 20
74.2315
 30
0.0000
 40
1.2977
 50
0.0000
 51
25.9895
  0
ARC
  8
48
 10
46.2787
 20
74.2315
 30
0.0000
 40
1.2978
 50
180.0001
 51
205.9888
  0
ARC
  8
48
 10
45.4184
 20
73.7678
 30
0.0000
 40
0.3237
 50
198.9248
 51
270.0001
  0
ARC
  8
48
 10
44.5581
 20
74.2315
 30
0.0000
 40
1.2978
 50
334.0107
 51
359.9999
  0
ARC
  8
48
 10
45.4184
 20
73.7678
 30
0.0000
 40
0.3237
 50
270.0000
 51
341.0761
  0
LINE
  8
48
 10
45.0684
 20
73.7941
 30
0.0000
 11
45.7683
 21
74.6689
 31
0.0000
  0
LINE
  8
48
 10
46.5441
 20
74.6689
 30
0.0000
 11
46.9815
 21
75.0189
 31
0.0000
  0
LINE
  8
48
 10
46.9815
 20
75.0189
 30
0.0000
 11
46.9815
 21
73.4441
 31
0.0000
  0
LINE
  8
48
 10
46.5441
 20
73.4441
 30
0.0000
 11
47.4189
 21
73.4441
 31
0.0000
  0
LINE
  8
48
 10
48.1239
 20
74.0565
 30
0.0000
 11
49.1738
 21
74.0565
 31
0.0000
  0
ARC
  8
48
 10
51.1765
 20
74.2315
 30
0.0000
 40
1.2978
 50
154.0111
 51
180.0000
  0
ARC
  8
48
 10
50.3162
 20
74.6952
 30
0.0000
 40
0.3237
 50
90.0000
 51
161.0758
  0
ARC
  8
48
 10
50.3162
 20
74.6952
 30
0.0000
 40
0.3237
 50
18.9235
 51
90.0002
  0
ARC
  8
48
 10
49.4559
 20
74.2315
 30
0.0000
 40
1.2977
 50
0.0000
 51
25.9895
  0
ARC
  8
48
 10
51.1765
 20
74.2315
 30
0.0000
 40
1.2978
 50
180.0001
 51
205.9888
  0
ARC
  8
48
 10
50.3162
 20
73.7678
 30
0.0000
 40
0.3237
 50
198.9248
 51
270.0001
  0
ARC
  8
48
 10
49.4559
 20
74.2315
 30
0.0000
 40
1.2978
 50
334.0107
 51
359.9999
  0
ARC
  8
48
 10
50.3162
 20
73.7678
 30
0.0000
 40
0.3237
 50
270.0000
 51
341.0761
  0
LINE
  8
48
 10
49.9662
 20
73.7941
 30
0.0000
 11
50.6661
 21
74.6689
 31
0.0000
  0
ARC
  8
48
 10
52.7396
 20
74.2315
 30
0.0000
 40
1.2978
 50
154.0111
 51
180.0000
  0
ARC
  8
48
 10
51.8793
 20
74.6952
 30
0.0000
 40
0.3237
 50
90.0000
 51
161.0758
  0
ARC
  8
48
 10
51.8793
 20
74.6952
 30
0.0000
 40
0.3237
 50
18.9235
 51
90.0002
  0
ARC
  8
48
 10
51.0190
 20
74.2315
 30
0.0000
 40
1.2977
 50
0.0000
 51
25.9895
  0
ARC
  8
48
 10
52.7396
 20
74.2315
 30
0.0000
 40
1.2978
 50
180.0001
 51
205.9888
  0
ARC
  8
48
 10
51.8793
 20
73.7678
 30
0.0000
 40
0.3237
 50
198.9248
 51
270.0001
  0
ARC
  8
48
 10
51.0190
 20
74.2315
 30
0.0000
 40
1.2978
 50
334.0107
 51
359.9999
  0
ARC
  8
48
 10
51.8793
 20
73.7678
 30
0.0000
 40
0.3237
 50
270.0000
 51
341.0761
  0
LINE
  8
48
 10
51.5293
 20
73.7941
 30
0.0000
 11
52.2292
 21
74.6689
 31
0.0000
  0
LINE
  8
48
 10
30.1054
 20
70.2691
 30
0.0000
 11
30.5428
 21
70.2691
 31
0.0000
  0
ARC
  8
48
 10
30.5428
 20
70.7065
 30
0.0000
 40
0.4374
 50
270.0000
 51
90.0000
  0
LINE
  8
48
 10
30.1054
 20
71.8439
 30
0.0000
 11
30.6303
 21
71.8439
 31
0.0000
  0
ARC
  8
48
 10
30.6303
 20
71.4939
 30
0.0000
 40
0.3500
 50
270.0000
 51
90.0000
  0
LINE
  8
48
 10
30.6303
 20
71.1440
 30
0.0000
 11
30.2803
 21
71.1440
 31
0.0000
  0
LINE
  8
48
 10
31.6685
 20
70.2691
 30
0.0000
 11
32.1934
 21
70.2691
 31
0.0000
  0
ARC
  8
48
 10
32.1934
 20
70.6191
 30
0.0000
 40
0.3500
 50
270.0000
 51
359.9995
  0
LINE
  8
48
 10
32.5434
 20
70.6191
 30
0.0000
 11
32.5434
 21
70.7940
 31
0.0000
  0
ARC
  8
48
 10
32.1934
 20
70.7940
 30
0.0000
 40
0.3500
 50
0.0000
 51
90.0000
  0
LINE
  8
48
 10
32.1934
 20
71.1440
 30
0.0000
 11
31.6685
 21
71.1440
 31
0.0000
  0
LINE
  8
48
 10
31.6685
 20
71.1440
 30
0.0000
 11
31.6685
 21
71.8439
 31
0.0000
  0
LINE
  8
48
 10
31.6685
 20
71.8439
 30
0.0000
 11
32.5434
 21
71.8439
 31
0.0000
  0
LINE
  8
48
 10
33.3286
 20
69.7442
 30
0.0000
 11
33.3286
 21
71.3190
 31
0.0000
  0
LINE
  8
48
 10
34.0285
 20
71.3190
 30
0.0000
 11
34.0285
 21
70.6191
 31
0.0000
  0
ARC
  8
48
 10
33.6785
 20
70.6191
 30
0.0000
 40
0.3500
 50
180.0000
 51
0.0000
  0
LINE
  8
48
 10
34.0285
 20
70.6191
 30
0.0000
 11
34.0285
 21
70.4441
 31
0.0000
  0
ARC
  8
48
 10
34.2035
 20
70.4441
 30
0.0000
 40
0.1750
 50
180.0000
 51
270.0010
  0
LINE
  8
48
 10
34.8114
 20
70.2691
 30
0.0000
 11
34.8114
 21
71.3190
 31
0.0000
  0
LINE
  8
48
 10
34.8114
 20
71.3190
 30
0.0000
 11
35.5988
 21
71.3190
 31
0.0000
  0
ARC
  8
48
 10
35.5988
 20
71.0565
 30
0.0000
 40
0.2625
 50
0.0000
 51
90.0000
  0
LINE
  8
48
 10
35.8613
 20
71.0565
 30
0.0000
 11
35.8613
 21
70.2691
 31
0.0000
  0
LINE
  8
48
 10
35.3364
 20
70.2691
 30
0.0000
 11
35.3364
 21
71.3190
 31
0.0000
  0
ARC
  8
48
 10
52.1765
 20
71.4502
 30
0.0000
 40
0.3937
 50
0.0000
 51
90.0000
  0
ARC
  8
48
 10
52.1765
 20
71.3381
 30
0.0000
 40
0.5058
 50
90.0000
 51
162.0550
  0
ARC
  8
48
 10
52.1474
 20
71.4502
 30
0.0000
 40
0.4229
 50
313.6028
 51
359.9999
  0
LINE
  8
48
 10
52.4390
 20
71.1440
 30
0.0000
 11
51.6954
 21
70.2691
 31
0.0000
  0
LINE
  8
48
 10
51.6954
 20
70.2691
 30
0.0000
 11
52.5702
 21
70.2691
 31
0.0000
  0
ARC
  8
48
 10
47.5956
 20
64.5478
 30
0.0000
 40
1.2978
 50
154.0111
 51
180.0000
  0
ARC
  8
48
 10
46.7353
 20
65.0114
 30
0.0000
 40
0.3237
 50
90.0000
 51
161.0758
  0
ARC
  8
48
 10
46.7353
 20
65.0114
 30
0.0000
 40
0.3237
 50
18.9235
 51
90.0002
  0
ARC
  8
48
 10
45.8750
 20
64.5478
 30
0.0000
 40
1.2977
 50
0.0000
 51
25.9895
  0
ARC
  8
48
 10
47.5956
 20
64.5478
 30
0.0000
 40
1.2978
 50
180.0001
 51
205.9888
  0
ARC
  8
48
 10
46.7353
 20
64.0841
 30
0.0000
 40
0.3237
 50
198.9248
 51
270.0001
  0
ARC
  8
48
 10
45.8750
 20
64.5478
 30
0.0000
 40
1.2978
 50
334.0107
 51
359.9999
  0
ARC
  8
48
 10
46.7353
 20
64.0841
 30
0.0000
 40
0.3237
 50
270.0000
 51
341.0761
  0
LINE
  8
48
 10
46.3853
 20
64.1103
 30
0.0000
 11
47.0853
 21
64.9852
 31
0.0000
  0
LINE
  8
21
 10
7.6764
 20
2.9146
 30
0.0000
 11
8.0264
 21
2.4772
 31
0.0000
  0
LINE
  8
21
 10
8.0264
 20
2.4772
 30
0.0000
 11
6.4516
 21
2.4772
 31
0.0000
  0
LINE
  8
21
 10
6.4516
 20
2.9146
 30
0.0000
 11
6.4516
 21
2.0398
 31
0.0000
  0
ARC
  8
21
 10
7.4740
 20
51.1697
 30
0.0000
 40
0.3937
 50
270.0000
 51
0.0000
  0
ARC
  8
21
 10
7.3619
 20
51.1697
 30
0.0000
 40
0.5058
 50
0.0000
 51
72.0550
  0
ARC
  8
21
 10
7.4740
 20
51.1989
 30
0.0000
 40
0.4229
 50
223.6026
 51
270.0001
  0
LINE
  8
21
 10
7.1677
 20
50.9072
 30
0.0000
 11
6.2929
 21
51.6509
 31
0.0000
  0
LINE
  8
21
 10
6.2929
 20
51.6509
 30
0.0000
 11
6.2929
 21
50.7760
 31
0.0000
  0
ARC
  8
21
 10
7.0803
 20
48.7900
 30
0.0000
 40
1.2978
 50
64.0111
 51
90.0000
  0
ARC
  8
21
 10
7.5439
 20
49.6503
 30
0.0000
 40
0.3237
 50
360.0000
 51
71.0758
  0
ARC
  8
21
 10
7.5439
 20
49.6503
 30
0.0000
 40
0.3237
 50
288.9237
 51
359.9999
  0
ARC
  8
21
 10
7.0803
 20
50.5106
 30
0.0000
 40
1.2977
 50
270.0000
 51
295.9896
  0
ARC
  8
21
 10
7.0803
 20
48.7900
 30
0.0000
 40
1.2978
 50
90.0001
 51
115.9888
  0
ARC
  8
21
 10
6.6166
 20
49.6503
 30
0.0000
 40
0.3237
 50
108.9248
 51
180.0001
  0
ARC
  8
21
 10
7.0803
 20
50.5106
 30
0.0000
 40
1.2977
 50
244.0106
 51
269.9999
  0
ARC
  8
21
 10
6.6166
 20
49.6503
 30
0.0000
 40
0.3237
 50
180.0000
 51
251.0756
  0
LINE
  8
21
 10
6.6428
 20
50.0003
 30
0.0000
 11
7.5177
 21
49.3004
 31
0.0000
  0
LINE
  8
21
 10
10.1537
 20
48.7363
 30
0.0000
 11
10.1537
 21
41.5673
 31
0.0000
  0
LINE
  8
21
 10
8.7820
 20
48.6855
 30
0.0000
 11
9.9505
 21
48.6855
 31
0.0000
  0
LINE
  8
21
 10
9.9505
 20
48.6855
 30
0.0000
 11
9.9505
 21
48.3609
 31
0.0000
  0
ARC
  8
21
 10
9.6259
 20
48.3609
 30
0.0000
 40
0.3246
 50
180.0000
 51
0.0000
  0
LINE
  8
21
 10
9.3013
 20
48.3609
 30
0.0000
 11
9.3013
 21
48.6855
 31
0.0000
  0
LINE
  8
21
 10
8.7820
 20
48.0363
 30
0.0000
 11
9.3013
 21
48.2960
 31
0.0000
  0
LINE
  8
21
 10
8.7820
 20
46.9902
 30
0.0000
 11
8.7820
 21
47.5095
 31
0.0000
  0
LINE
  8
21
 10
8.7820
 20
47.5095
 30
0.0000
 11
9.9505
 21
47.5095
 31
0.0000
  0
LINE
  8
21
 10
9.9505
 20
47.5095
 30
0.0000
 11
9.9505
 21
46.9902
 31
0.0000
  0
LINE
  8
21
 10
9.4312
 20
47.5095
 30
0.0000
 11
9.4312
 21
47.1200
 31
0.0000
  0
ARC
  8
21
 10
9.0417
 20
46.2079
 30
0.0000
 40
0.2596
 50
180.0000
 51
270.0000
  0
ARC
  8
21
 10
9.3306
 20
46.2079
 30
0.0000
 40
0.5485
 50
134.7607
 51
180.0001
  0
ARC
  8
21
 10
9.6908
 20
46.3052
 30
0.0000
 40
0.2596
 50
0.0000
 51
90.0000
  0
ARC
  8
21
 10
9.4636
 20
46.3052
 30
0.0000
 40
0.4868
 50
323.1294
 51
360.0000
  0
ARC
  8
21
 10
9.6908
 20
46.3012
 30
0.0000
 40
0.2637
 50
90.0001
 51
149.4899
  0
ARC
  8
21
 10
9.0417
 20
46.2119
 30
0.0000
 40
0.2637
 50
269.9998
 51
329.4902
  0
LINE
  8
21
 10
9.2689
 20
46.0780
 30
0.0000
 11
9.4636
 21
46.4350
 31
0.0000
  0
LINE
  8
21
 10
8.7820
 20
45.2441
 30
0.0000
 11
9.9505
 21
45.2441
 31
0.0000
  0
LINE
  8
21
 10
9.9505
 20
45.5686
 30
0.0000
 11
9.9505
 21
44.9195
 31
0.0000
  0
LINE
  8
21
 10
9.1066
 20
44.5018
 30
0.0000
 11
9.6259
 21
44.5018
 31
0.0000
  0
ARC
  8
21
 10
9.6259
 20
44.1773
 30
0.0000
 40
0.3246
 50
270.0000
 51
90.0000
  0
LINE
  8
21
 10
9.6259
 20
43.8527
 30
0.0000
 11
9.1066
 21
43.8527
 31
0.0000
  0
ARC
  8
21
 10
9.1066
 20
44.1773
 30
0.0000
 40
0.3246
 50
90.0000
 51
270.0000
  0
LINE
  8
21
 10
8.7820
 20
43.3134
 30
0.0000
 11
9.9505
 21
43.3134
 31
0.0000
  0
LINE
  8
21
 10
9.9505
 20
43.3134
 30
0.0000
 11
9.9505
 21
42.9888
 31
0.0000
  0
ARC
  8
21
 10
9.6259
 20
42.9888
 30
0.0000
 40
0.3246
 50
180.0000
 51
0.0000
  0
LINE
  8
21
 10
9.3013
 20
42.9888
 30
0.0000
 11
9.3013
 21
43.3134
 31
0.0000
  0
LINE
  8
21
 10
8.7820
 20
42.6643
 30
0.0000
 11
9.3013
 21
42.9239
 31
0.0000
  0
LINE
  8
21
 10
8.7820
 20
41.6181
 30
0.0000
 11
8.7820
 21
42.1374
 31
0.0000
  0
LINE
  8
21
 10
8.7820
 20
42.1374
 30
0.0000
 11
9.9505
 21
42.1374
 31
0.0000
  0
LINE
  8
21
 10
9.9505
 20
42.1374
 30
0.0000
 11
9.9505
 21
41.6181
 31
0.0000
  0
LINE
  8
21
 10
9.4312
 20
42.1374
 30
0.0000
 11
9.4312
 21
41.7479
 31
0.0000
  0
LINE
  8
21
 10
8.9980
 20
10.8458
 30
0.0000
 11
8.9980
 21
11.1704
 31
0.0000
  0
ARC
  8
21
 10
8.6734
 20
11.1704
 30
0.0000
 40
0.3246
 50
0.0000
 51
180.0000
  0
LINE
  8
21
 10
7.8296
 20
10.8458
 30
0.0000
 11
7.8296
 21
11.2353
 31
0.0000
  0
ARC
  8
21
 10
8.0892
 20
11.2353
 30
0.0000
 40
0.2596
 50
0.0000
 51
180.0000
  0
LINE
  8
21
 10
8.3488
 20
11.2353
 30
0.0000
 11
8.3488
 21
10.9756
 31
0.0000
  0
LINE
  8
21
 10
8.9980
 20
11.9888
 30
0.0000
 11
8.9980
 21
12.3133
 31
0.0000
  0
ARC
  8
21
 10
8.6734
 20
12.3133
 30
0.0000
 40
0.3246
 50
0.0000
 51
180.0000
  0
LINE
  8
21
 10
7.8296
 20
11.9888
 30
0.0000
 11
7.8296
 21
12.3783
 31
0.0000
  0
ARC
  8
21
 10
8.0892
 20
12.3783
 30
0.0000
 40
0.2596
 50
0.0000
 51
180.0000
  0
LINE
  8
21
 10
8.3488
 20
12.3783
 30
0.0000
 11
8.3488
 21
12.1186
 31
0.0000
  0
ARC
  8
21
 10
8.4138
 20
14.0947
 30
0.0000
 40
0.9629
 50
244.0111
 51
269.9999
  0
ARC
  8
21
 10
8.0697
 20
13.4563
 30
0.0000
 40
0.2402
 50
180.0000
 51
251.0758
  0
ARC
  8
21
 10
8.0697
 20
13.4563
 30
0.0000
 40
0.2402
 50
108.9240
 51
180.0001
  0
ARC
  8
21
 10
8.4138
 20
12.8180
 30
0.0000
 40
0.9629
 50
90.0001
 51
115.9889
  0
ARC
  8
21
 10
8.4138
 20
14.0947
 30
0.0000
 40
0.9629
 50
270.0000
 51
295.9888
  0
ARC
  8
21
 10
8.7578
 20
13.4563
 30
0.0000
 40
0.2402
 50
288.9254
 51
359.9998
  0
ARC
  8
21
 10
8.4138
 20
12.8180
 30
0.0000
 40
0.9629
 50
64.0112
 51
90.0000
  0
ARC
  8
21
 10
8.7578
 20
13.4563
 30
0.0000
 40
0.2402
 50
0.0000
 51
71.0747
  0
LINE
  8
21
 10
8.7383
 20
13.1967
 30
0.0000
 11
8.0892
 21
13.7160
 31
0.0000
  0
LINE
  8
21
 10
8.9980
 20
14.3203
 30
0.0000
 11
7.8296
 21
14.3203
 31
0.0000
  0
LINE
  8
21
 10
7.8296
 20
14.3203
 30
0.0000
 11
7.8296
 21
14.6448
 31
0.0000
  0
ARC
  8
21
 10
8.1541
 20
14.6448
 30
0.0000
 40
0.3246
 50
0.0000
 51
180.0000
  0
LINE
  8
21
 10
8.4787
 20
14.6448
 30
0.0000
 11
8.4787
 21
14.3203
 31
0.0000
  0
LINE
  8
21
 10
8.9980
 20
14.9694
 30
0.0000
 11
8.4787
 21
14.7097
 31
0.0000
  0
CIRCLE
  8
20
 10
11.9063
 20
49.8475
 30
0.0000
 40
1.0000
  0
POINT
  8
23
 10
5.0800
 20
26.6700
 30
0.0000
  0
LINE
  8
21
 10
3.9800
 20
1.1700
 30
0.0000
 11
3.9800
 21
52.1700
 31
0.0000
  0
LINE
  8
21
 10
3.9800
 20
52.1700
 30
0.0000
 11
-4.5200
 21
52.1700
 31
0.0000
  0
LINE
  8
21
 10
-4.5200
 20
52.1700
 30
0.0000
 11
-4.5200
 21
1.1700
 31
0.0000
  0
LINE
  8
21
 10
-4.5200
 20
1.1700
 30
0.0000
 11
3.9800
 21
1.1700
 31
0.0000
  0
LINE
  8
21
 10
1.5800
 20
2.5700
 30
0.0000
 11
2.8800
 21
2.5700
 31
0.0000
  0
LINE
  8
21
 10
1.5800
 20
2.5700
 30
0.0000
 11
1.8800
 21
2.3700
 31
0.0000
  0
LINE
  8
21
 10
2.8800
 20
2.2700
 30
0.0000
 11
2.8800
 21
2.8700
 31
0.0000
  0
INSERT
  8
21
  2
RECT
 10
4.1300
 20
20.3200
 30
0.0000
 41
0.4000
 42
0.3000
 43
1.0000
 50
90.0000
  0
INSERT
  8
51
  2
RECT
 10
4.7800
 20
20.3200
 30
0.0000
 41
0.4000
 42
1.0000
 43
1.0000
 50
90.0000
  0
INSERT
  8
21
  2
RECT
 10
4.1300
 20
2.5400
 30
0.0000
 41
0.4000
 42
0.3000
 43
1.0000
 50
90.0000
  0
INSERT
  8
51
  2
RECT
 10
4.7800
 20
2.5400
 30
0.0000
 41
0.4000
 42
1.0000
 43
1.0000
 50
90.0000
  0
INSERT
  8
21
  2
RECT
 10
4.1300
 20
5.0800
 30
0.0000
 41
0.4000
 42
0.3000
 43
1.0000
 50
90.0000
  0
INSERT
  8
51
  2
RECT
 10
4.7800
 20
5.0800
 30
0.0000
 41
0.4000
 42
1.0000
 43
1.0000
 50
90.0000
  0
INSERT
  8
21
  2
RECT
 10
4.1300
 20
7.6200
 30
0.0000
 41
0.4000
 42
0.3000
 43
1.0000
 50
90.0000
  0
INSERT
  8
51
  2
RECT
 10
4.7800
 20
7.6200
 30
0.0000
 41
0.4000
 42
1.0000
 43
1.0000
 50
90.0000
  0
INSERT
  8
21
  2
RECT
 10
4.1300
 20
10.1600
 30
0.0000
 41
0.4000
 42
0.3000
 43
1.0000
 50
90.0000
  0
INSERT
  8
51
  2
RECT
 10
4.7800
 20
10.1600
 30
0.0000
 41
0.4000
 42
1.0000
 43
1.0000
 50
90.0000
  0
INSERT
  8
21
  2
RECT
 10
4.1300
 20
12.7000
 30
0.0000
 41
0.4000
 42
0.3000
 43
1.0000
 50
90.0000
  0
INSERT
  8
51
  2
RECT
 10
4.7800
 20
12.7000
 30
0.0000
 41
0.4000
 42
1.0000
 43
1.0000
 50
90.0000
  0
INSERT
  8
21
  2
RECT
 10
4.1300
 20
15.2400
 30
0.0000
 41
0.4000
 42
0.3000
 43
1.0000
 50
90.0000
  0
INSERT
  8
51
  2
RECT
 10
4.7800
 20
15.2400
 30
0.0000
 41
0.4000
 42
1.0000
 43
1.0000
 50
90.0000
  0
INSERT
  8
21
  2
RECT
 10
4.1300
 20
17.7800
 30
0.0000
 41
0.4000
 42
0.3000
 43
1.0000
 50
90.0000
  0
INSERT
  8
51
  2
RECT
 10
4.7800
 20
17.7800
 30
0.0000
 41
0.4000
 42
1.0000
 43
1.0000
 50
90.0000
  0
INSERT
  8
21
  2
RECT
 10
4.1300
 20
22.8600
 30
0.0000
 41
0.4000
 42
0.3000
 43
1.0000
 50
90.0000
  0
INSERT
  8
51
  2
RECT
 10
4.7800
 20
22.8600
 30
0.0000
 41
0.4000
 42
1.0000
 43
1.0000
 50
90.0000
  0
INSERT
  8
21
  2
RECT
 10
4.1300
 20
25.4000
 30
0.0000
 41
0.4000
 42
0.3000
 43
1.0000
 50
90.0000
  0
INSERT
  8
51
  2
RECT
 10
4.7800
 20
25.4000
 30
0.0000
 41
0.4000
 42
1.0000
 43
1.0000
 50
90.0000
  0
INSERT
  8
21
  2
RECT
 10
4.1300
 20
27.9400
 30
0.0000
 41
0.4000
 42
0.3000
 43
1.0000
 50
90.0000
  0
INSERT
  8
51
  2
RECT
 10
4.7800
 20
27.9400
 30
0.0000
 41
0.4000
 42
1.0000
 43
1.0000
 50
90.0000
  0
INSERT
  8
21
  2
RECT
 10
4.1300
 20
30.4800
 30
0.0000
 41
0.4000
 42
0.3000
 43
1.0000
 50
90.0000
  0
INSERT
  8
51
  2
RECT
 10
4.7800
 20
30.4800
 30
0.0000
 41
0.4000
 42
1.0000
 43
1.0000
 50
90.0000
  0
INSERT
  8
21
  2
RECT
 10
4.1300
 20
33.0200
 30
0.0000
 41
0.4000
 42
0.3000
 43
1.0000
 50
90.0000
  0
INSERT
  8
51
  2
RECT
 10
4.7800
 20
33.0200
 30
0.0000
 41
0.4000
 42
1.0000
 43
1.0000
 50
90.0000
  0
INSERT
  8
21
  2
RECT
 10
4.1300
 20
35.5600
 30
0.0000
 41
0.4000
 42
0.3000
 43
1.0000
 50
90.0000
  0
INSERT
  8
51
  2
RECT
 10
4.7800
 20
35.5600
 30
0.0000
 41
0.4000
 42
1.0000
 43
1.0000
 50
90.0000
  0
INSERT
  8
21
  2
RECT
 10
4.1300
 20
38.1000
 30
0.0000
 41
0.4000
 42
0.3000
 43
1.0000
 50
90.0000
  0
INSERT
  8
51
  2
RECT
 10
4.7800
 20
38.1000
 30
0.0000
 41
0.4000
 42
1.0000
 43
1.0000
 50
90.0000
  0
INSERT
  8
21
  2
RECT
 10
4.1300
 20
40.6400
 30
0.0000
 41
0.4000
 42
0.3000
 43
1.0000
 50
90.0000
  0
INSERT
  8
51
  2
RECT
 10
4.7800
 20
40.6400
 30
0.0000
 41
0.4000
 42
1.0000
 43
1.0000
 50
90.0000
  0
INSERT
  8
21
  2
RECT
 10
4.1300
 20
43.1800
 30
0.0000
 41
0.4000
 42
0.3000
 43
1.0000
 50
90.0000
  0
INSERT
  8
51
  2
RECT
 10
4.7800
 20
43.1800
 30
0.0000
 41
0.4000
 42
1.0000
 43
1.0000
 50
90.0000
  0
INSERT
  8
21
  2
RECT
 10
4.1300
 20
45.7200
 30
0.0000
 41
0.4000
 42
0.3000
 43
1.0000
 50
90.0000
  0
INSERT
  8
51
  2
RECT
 10
4.7800
 20
45.7200
 30
0.0000
 41
0.4000
 42
1.0000
 43
1.0000
 50
90.0000
  0
INSERT
  8
21
  2
RECT
 10
4.1300
 20
48.2600
 30
0.0000
 41
0.4000
 42
0.3000
 43
1.0000
 50
90.0000
  0
INSERT
  8
51
  2
RECT
 10
4.7800
 20
48.2600
 30
0.0000
 41
0.4000
 42
1.0000
 43
1.0000
 50
90.0000
  0
INSERT
  8
21
  2
RECT
 10
4.1300
 20
50.8000
 30
0.0000
 41
0.4000
 42
0.3000
 43
1.0000
 50
90.0000
  0
INSERT
  8
51
  2
RECT
 10
4.7800
 20
50.8000
 30
0.0000
 41
0.4000
 42
1.0000
 43
1.0000
 50
90.0000
  0
LINE
  8
25
 10
1.7528
 20
51.8192
 30
0.0000
 11
1.7528
 21
50.9104
 31
0.0000
  0
ARC
  8
25
 10
1.4931
 20
50.9104
 30
0.0000
 40
0.2596
 50
270.0000
 51
0.0000
  0
LINE
  8
25
 10
1.4931
 20
50.6508
 30
0.0000
 11
1.3633
 21
50.6508
 31
0.0000
  0
LINE
  8
25
 10
2.2801
 20
51.5596
 30
0.0000
 11
2.6046
 21
51.8192
 31
0.0000
  0
LINE
  8
25
 10
2.6046
 20
51.8192
 30
0.0000
 11
2.6046
 21
50.6508
 31
0.0000
  0
LINE
  8
25
 10
2.2801
 20
50.6508
 30
0.0000
 11
2.9292
 21
50.6508
 31
0.0000
  0
POINT
  8
23
 10
11.9063
 20
45.5613
 30
0.0000
  0
LINE
  8
21
 10
11.2713
 20
46.8313
 30
0.0000
 11
12.5412
 21
46.8313
 31
0.0000
  0
LINE
  8
21
 10
12.5412
 20
46.8313
 30
0.0000
 11
13.1763
 21
46.1962
 31
0.0000
  0
LINE
  8
21
 10
13.1763
 20
46.1962
 30
0.0000
 11
13.1763
 21
44.9263
 31
0.0000
  0
LINE
  8
21
 10
13.1763
 20
44.9263
 30
0.0000
 11
12.5412
 21
44.2913
 31
0.0000
  0
LINE
  8
21
 10
10.6363
 20
46.1962
 30
0.0000
 11
10.6363
 21
44.9263
 31
0.0000
  0
LINE
  8
21
 10
11.2713
 20
46.8313
 30
0.0000
 11
10.6363
 21
46.1962
 31
0.0000
  0
LINE
  8
21
 10
10.6363
 20
44.9263
 30
0.0000
 11
11.2713
 21
44.2913
 31
0.0000
  0
LINE
  8
21
 10
12.5412
 20
44.2913
 30
0.0000
 11
11.2713
 21
44.2913
 31
0.0000
  0
INSERT
  8
51
  2
RECT
 10
11.9063
 20
45.5613
 30
0.0000
 41
0.5080
 42
0.5080
 43
1.0000
 50
0.0000
  0
LINE
  8
25
 10
11.6353
 20
43.6880
 30
0.0000
 11
11.6353
 21
42.7792
 31
0.0000
  0
ARC
  8
25
 10
11.3757
 20
42.7792
 30
0.0000
 40
0.2596
 50
270.0000
 51
0.0000
  0
LINE
  8
25
 10
11.3757
 20
42.5196
 30
0.0000
 11
11.2459
 21
42.5196
 31
0.0000
  0
ARC
  8
25
 10
12.5197
 20
43.3959
 30
0.0000
 40
0.2921
 50
0.0000
 51
90.0000
  0
ARC
  8
25
 10
12.5197
 20
43.3127
 30
0.0000
 40
0.3753
 50
90.0001
 51
162.0549
  0
ARC
  8
25
 10
12.4980
 20
43.3959
 30
0.0000
 40
0.3138
 50
313.6040
 51
359.9996
  0
LINE
  8
25
 10
12.7144
 20
43.1687
 30
0.0000
 11
12.1627
 21
42.5196
 31
0.0000
  0
LINE
  8
25
 10
12.1627
 20
42.5196
 30
0.0000
 11
12.8118
 21
42.5196
 31
0.0000
  0
POINT
  8
23
 10
11.9063
 20
3.0163
 30
0.0000
  0
ARC
  8
21
 10
11.9063
 20
3.0163
 30
0.0000
 40
1.7000
 50
298.0725
 51
61.9275
  0
ARC
  8
21
 10
11.9063
 20
3.0163
 30
0.0000
 40
1.7000
 50
118.0725
 51
241.9275
  0
LINE
  8
51
 10
12.7063
 20
1.5163
 30
0.0000
 11
11.1063
 21
1.5163
 31
0.0000
  0
LINE
  8
21
 10
13.0175
 20
1.4287
 30
0.0000
 11
13.6525
 21
1.4287
 31
0.0000
  0
LINE
  8
21
 10
13.0175
 20
4.6625
 30
0.0000
 11
13.6525
 21
4.6625
 31
0.0000
  0
LINE
  8
21
 10
13.3350
 20
4.3450
 30
0.0000
 11
13.3350
 21
4.9800
 31
0.0000
  0
ARC
  8
21
 10
11.9063
 20
3.0163
 30
0.0000
 40
1.7000
 50
298.0725
 51
61.9275
  0
ARC
  8
21
 10
11.9063
 20
3.0163
 30
0.0000
 40
1.7000
 50
118.0725
 51
241.9275
  0
ARC
  8
51
 10
11.9063
 20
3.0163
 30
0.0000
 40
1.7000
 50
61.9275
 51
118.0725
  0
LINE
  8
51
 10
12.4842
 20
3.7516
 30
0.0000
 11
11.5443
 21
4.0649
 31
0.0000
  0
LINE
  8
51
 10
11.5443
 20
4.0649
 30
0.0000
 11
12.4842
 21
4.3782
 31
0.0000
  0
LINE
  8
51
 10
12.2492
 20
4.2998
 30
0.0000
 11
12.2492
 21
3.8299
 31
0.0000
  0
LINE
  8
51
 10
12.4842
 20
2.3782
 30
0.0000
 11
12.4842
 21
2.1693
 31
0.0000
  0
ARC
  8
51
 10
12.2753
 20
2.1693
 30
0.0000
 40
0.2088
 50
270.0000
 51
0.0000
  0
LINE
  8
51
 10
12.2753
 20
1.9605
 30
0.0000
 11
11.7532
 21
1.9605
 31
0.0000
  0
ARC
  8
51
 10
11.7532
 20
2.1693
 30
0.0000
 40
0.2089
 50
180.0017
 51
270.0000
  0
LINE
  8
51
 10
11.5443
 20
2.1693
 30
0.0000
 11
11.5443
 21
2.3782
 31
0.0000
  0
CIRCLE
  8
51
 10
11.9063
 20
3.0163
 30
0.0000
 40
1.5000
  0
LINE
  8
25
 10
12.2873
 20
5.4610
 30
0.0000
 11
13.4303
 21
5.4610
 31
0.0000
  0
LINE
  8
25
 10
13.4303
 20
5.4610
 30
0.0000
 11
13.4303
 21
5.9690
 31
0.0000
  0
LINE
  8
25
 10
13.4303
 20
6.4491
 30
0.0000
 11
12.2873
 21
6.4491
 31
0.0000
  0
LINE
  8
25
 10
12.2873
 20
6.4491
 30
0.0000
 11
12.2873
 21
6.7666
 31
0.0000
  0
ARC
  8
25
 10
12.6048
 20
6.7666
 30
0.0000
 40
0.3175
 50
90.0000
 51
180.0000
  0
LINE
  8
25
 10
12.6048
 20
7.0841
 30
0.0000
 11
13.1128
 21
7.0841
 31
0.0000
  0
ARC
  8
25
 10
13.1128
 20
6.7666
 30
0.0000
 40
0.3175
 50
0.0000
 51
90.0000
  0
LINE
  8
25
 10
13.4303
 20
6.7666
 30
0.0000
 11
13.4303
 21
6.4491
 31
0.0000
  0
LINE
  8
25
 10
12.5412
 20
7.6302
 30
0.0000
 11
12.2873
 21
7.9477
 31
0.0000
  0
LINE
  8
25
 10
12.2873
 20
7.9477
 30
0.0000
 11
13.4303
 21
7.9477
 31
0.0000
  0
LINE
  8
25
 10
13.4303
 20
7.6302
 30
0.0000
 11
13.4303
 21
8.2652
 31
0.0000
  0
POINT
  8
23
 10
8.3637
 20
12.7600
 30
0.0000
  0
LINE
  8
21
 10
7.0938
 20
16.5700
 30
0.0000
 11
7.0938
 21
8.9500
 31
0.0000
  0
LINE
  8
21
 10
9.6338
 20
8.9500
 30
0.0000
 11
9.6338
 21
16.5700
 31
0.0000
  0
LINE
  8
21
 10
8.3637
 20
8.9500
 30
0.0000
 11
8.3637
 21
8.1880
 31
0.0000
  0
LINE
  8
21
 10
7.0938
 20
8.9500
 30
0.0000
 11
9.6338
 21
8.9500
 31
0.0000
  0
LINE
  8
21
 10
8.3637
 20
16.5700
 30
0.0000
 11
8.3637
 21
17.3320
 31
0.0000
  0
LINE
  8
21
 10
9.6338
 20
16.5700
 30
0.0000
 11
7.0938
 21
16.5700
 31
0.0000
  0
LINE
  8
25
 10
11.1705
 20
14.8932
 30
0.0000
 11
10.0021
 21
14.8932
 31
0.0000
  0
LINE
  8
25
 10
10.0021
 20
14.8932
 30
0.0000
 11
10.0021
 21
15.2178
 31
0.0000
  0
ARC
  8
25
 10
10.3266
 20
15.2178
 30
0.0000
 40
0.3246
 50
0.0000
 51
180.0000
  0
LINE
  8
25
 10
10.6512
 20
15.2178
 30
0.0000
 11
10.6512
 21
14.8932
 31
0.0000
  0
LINE
  8
25
 10
11.1705
 20
15.5423
 30
0.0000
 11
10.6512
 21
15.2827
 31
0.0000
  0
LINE
  8
25
 10
10.2617
 20
16.0288
 30
0.0000
 11
10.0021
 21
16.3534
 31
0.0000
  0
LINE
  8
25
 10
10.0021
 20
16.3534
 30
0.0000
 11
11.1705
 21
16.3534
 31
0.0000
  0
LINE
  8
25
 10
11.1705
 20
16.0288
 30
0.0000
 11
11.1705
 21
16.6779
 31
0.0000
  0
POINT
  8
23
 10
2.9938
 20
45.7313
 30
0.0000
  0
POINT
  8
23
 10
0.0000
 20
60.0000
 30
0.0000
  0
LINE
  8
48
 10
54.6100
 20
60.0000
 30
0.0000
 11
54.6100
 21
63.1750
 31
0.0000
  0
LINE
  8
48
 10
54.6100
 20
63.1750
 30
0.0000
 11
54.6100
 21
66.3500
 31
0.0000
  0
LINE
  8
48
 10
54.6100
 20
66.3500
 30
0.0000
 11
54.6100
 21
69.5250
 31
0.0000
  0
LINE
  8
48
 10
54.6100
 20
69.5250
 30
0.0000
 11
54.6100
 21
72.7000
 31
0.0000
  0
LINE
  8
48
 10
54.6100
 20
72.7000
 30
0.0000
 11
54.6100
 21
75.8750
 31
0.0000
  0
LINE
  8
48
 10
54.6100
 20
75.8750
 30
0.0000
 11
22.8600
 21
75.8750
 31
0.0000
  0
LINE
  8
48
 10
22.8600
 20
75.8750
 30
0.0000
 11
0.0000
 21
75.8750
 31
0.0000
  0
LINE
  8
48
 10
0.0000
 20
75.8750
 30
0.0000
 11
0.0000
 21
69.5250
 31
0.0000
  0
LINE
  8
48
 10
0.0000
 20
69.5250
 30
0.0000
 11
0.0000
 21
66.3500
 31
0.0000
  0
LINE
  8
48
 10
0.0000
 20
66.3500
 30
0.0000
 11
0.0000
 21
63.1750
 31
0.0000
  0
LINE
  8
48
 10
0.0000
 20
63.1750
 30
0.0000
 11
0.0000
 21
60.0000
 31
0.0000
  0
LINE
  8
48
 10
0.0000
 20
60.0000
 30
0.0000
 11
54.6100
 21
60.0000
 31
0.0000
  0
LINE
  8
48
 10
0.0000
 20
63.1750
 30
0.0000
 11
36.8300
 21
63.1750
 31
0.0000
  0
LINE
  8
48
 10
36.8300
 20
63.1750
 30
0.0000
 11
54.6100
 21
63.1750
 31
0.0000
  0
LINE
  8
48
 10
0.0000
 20
66.3500
 30
0.0000
 11
36.8300
 21
66.3500
 31
0.0000
  0
LINE
  8
48
 10
36.8300
 20
66.3500
 30
0.0000
 11
54.6100
 21
66.3500
 31
0.0000
  0
LINE
  8
48
 10
0.0000
 20
69.5250
 30
0.0000
 11
22.8600
 21
69.5250
 31
0.0000
  0
LINE
  8
48
 10
22.8600
 20
69.5250
 30
0.0000
 11
36.8300
 21
69.5250
 31
0.0000
  0
LINE
  8
48
 10
36.8300
 20
69.5250
 30
0.0000
 11
54.6100
 21
69.5250
 31
0.0000
  0
LINE
  8
48
 10
22.8600
 20
75.8750
 30
0.0000
 11
22.8600
 21
72.7000
 31
0.0000
  0
LINE
  8
48
 10
22.8600
 20
72.7000
 30
0.0000
 11
22.8600
 21
69.5250
 31
0.0000
  0
LINE
  8
48
 10
22.8600
 20
72.7000
 30
0.0000
 11
36.8300
 21
72.7000
 31
0.0000
  0
LINE
  8
48
 10
36.8300
 20
72.7000
 30
0.0000
 11
54.6100
 21
72.7000
 31
0.0000
  0
LINE
  8
48
 10
36.8300
 20
72.7000
 30
0.0000
 11
36.8300
 21
69.5250
 31
0.0000
  0
LINE
  8
48
 10
36.8300
 20
66.3500
 30
0.0000
 11
36.8300
 21
63.1750
 31
0.0000
  0
LINE
  8
21
 10
1.3589
 20
60.9102
 30
0.0000
 11
1.3589
 21
62.2564
 31
0.0000
  0
LINE
  8
21
 10
1.3589
 20
62.2564
 30
0.0000
 11
1.7328
 21
62.2564
 31
0.0000
  0
ARC
  8
21
 10
1.7328
 20
62.0320
 30
0.0000
 40
0.2244
 50
0.0000
 51
90.0000
  0
LINE
  8
21
 10
1.9572
 20
62.0320
 30
0.0000
 11
1.9572
 21
61.5833
 31
0.0000
  0
ARC
  8
21
 10
1.7328
 20
61.5833
 30
0.0000
 40
0.2244
 50
270.0008
 51
0.0000
  0
LINE
  8
21
 10
1.7328
 20
61.3589
 30
0.0000
 11
1.3589
 21
61.3589
 31
0.0000
  0
LINE
  8
21
 10
2.5485
 20
62.7051
 30
0.0000
 11
2.5485
 21
61.5833
 31
0.0000
  0
ARC
  8
21
 10
2.7729
 20
61.5833
 30
0.0000
 40
0.2244
 50
180.0000
 51
270.0000
  0
LINE
  8
21
 10
3.8564
 20
61.8824
 30
0.0000
 11
3.5199
 21
61.8824
 31
0.0000
  0
ARC
  8
21
 10
3.5199
 20
61.6207
 30
0.0000
 40
0.2618
 50
90.0000
 51
270.0000
  0
LINE
  8
21
 10
3.5199
 20
61.3589
 30
0.0000
 11
3.8564
 21
61.3589
 31
0.0000
  0
LINE
  8
21
 10
3.8564
 20
61.3589
 30
0.0000
 11
3.8564
 21
62.0320
 31
0.0000
  0
ARC
  8
21
 10
3.6320
 20
62.0320
 30
0.0000
 40
0.2244
 50
0.0000
 51
90.0000
  0
LINE
  8
21
 10
3.6320
 20
62.2564
 30
0.0000
 11
3.3329
 21
62.2564
 31
0.0000
  0
LINE
  8
21
 10
5.0241
 20
61.3589
 30
0.0000
 11
4.7250
 21
61.3589
 31
0.0000
  0
ARC
  8
21
 10
4.7250
 20
61.5833
 30
0.0000
 40
0.2244
 50
180.0000
 51
270.0000
  0
LINE
  8
21
 10
4.5006
 20
61.5833
 30
0.0000
 11
4.5006
 21
62.0320
 31
0.0000
  0
ARC
  8
21
 10
4.7250
 20
62.0320
 30
0.0000
 40
0.2244
 50
89.9992
 51
180.0000
  0
LINE
  8
21
 10
4.7250
 20
62.2564
 30
0.0000
 11
5.0241
 21
62.2564
 31
0.0000
  0
LINE
  8
21
 10
6.1464
 20
61.3589
 30
0.0000
 11
5.7725
 21
61.3589
 31
0.0000
  0
ARC
  8
21
 10
5.7725
 20
61.5833
 30
0.0000
 40
0.2244
 50
180.0000
 51
270.0000
  0
LINE
  8
21
 10
5.5481
 20
61.5833
 30
0.0000
 11
5.5481
 21
61.9572
 31
0.0000
  0
ARC
  8
21
 10
5.8473
 20
61.9572
 30
0.0000
 40
0.2992
 50
0.0000
 51
180.0000
  0
LINE
  8
21
 10
6.1464
 20
61.9572
 30
0.0000
 11
6.1464
 21
61.8076
 31
0.0000
  0
LINE
  8
21
 10
6.1464
 20
61.8076
 30
0.0000
 11
5.5481
 21
61.8076
 31
0.0000
  0
LINE
  8
21
 10
6.8130
 20
61.3589
 30
0.0000
 11
6.8130
 21
62.2564
 31
0.0000
  0
LINE
  8
21
 10
6.8130
 20
62.2564
 30
0.0000
 11
7.4861
 21
62.2564
 31
0.0000
  0
ARC
  8
21
 10
7.4861
 20
62.0320
 30
0.0000
 40
0.2244
 50
0.0000
 51
90.0000
  0
LINE
  8
21
 10
7.7105
 20
62.0320
 30
0.0000
 11
7.7105
 21
61.3589
 31
0.0000
  0
LINE
  8
21
 10
7.2617
 20
61.3589
 30
0.0000
 11
7.2617
 21
62.2564
 31
0.0000
  0
LINE
  8
21
 10
8.9754
 20
61.3589
 30
0.0000
 11
8.6014
 21
61.3589
 31
0.0000
  0
ARC
  8
21
 10
8.6014
 20
61.5833
 30
0.0000
 40
0.2244
 50
180.0000
 51
270.0000
  0
LINE
  8
21
 10
8.3771
 20
61.5833
 30
0.0000
 11
8.3771
 21
61.9572
 31
0.0000
  0
ARC
  8
21
 10
8.6762
 20
61.9572
 30
0.0000
 40
0.2992
 50
0.0000
 51
180.0000
  0
LINE
  8
21
 10
8.9754
 20
61.9572
 30
0.0000
 11
8.9754
 21
61.8076
 31
0.0000
  0
LINE
  8
21
 10
8.9754
 20
61.8076
 30
0.0000
 11
8.3771
 21
61.8076
 31
0.0000
  0
LINE
  8
21
 10
9.6090
 20
61.3589
 30
0.0000
 11
9.6090
 21
62.2564
 31
0.0000
  0
LINE
  8
21
 10
9.6090
 20
62.2564
 30
0.0000
 11
9.9830
 21
62.2564
 31
0.0000
  0
ARC
  8
21
 10
9.9830
 20
62.0320
 30
0.0000
 40
0.2244
 50
0.0000
 51
90.0000
  0
LINE
  8
21
 10
10.2074
 20
62.0320
 30
0.0000
 11
10.2074
 21
61.3589
 31
0.0000
  0
LINE
  8
21
 10
10.7198
 20
62.2564
 30
0.0000
 11
11.1685
 21
62.2564
 31
0.0000
  0
LINE
  8
21
 10
10.8694
 20
62.7051
 30
0.0000
 11
10.8694
 21
61.5833
 31
0.0000
  0
ARC
  8
21
 10
11.0937
 20
61.5833
 30
0.0000
 40
0.2244
 50
180.0000
 51
270.0000
  0
LINE
  8
21
 10
11.0937
 20
61.3589
 30
0.0000
 11
11.1685
 21
61.3589
 31
0.0000
  0
LINE
  8
21
 10
12.9635
 20
61.3589
 30
0.0000
 11
12.6643
 21
61.3589
 31
0.0000
  0
ARC
  8
21
 10
12.6643
 20
61.5833
 30
0.0000
 40
0.2244
 50
180.0000
 51
270.0000
  0
LINE
  8
21
 10
12.4400
 20
61.5833
 30
0.0000
 11
12.4400
 21
62.0320
 31
0.0000
  0
ARC
  8
21
 10
12.6643
 20
62.0320
 30
0.0000
 40
0.2244
 50
89.9992
 51
180.0000
  0
LINE
  8
21
 10
12.6643
 20
62.2564
 30
0.0000
 11
12.9635
 21
62.2564
 31
0.0000
  0
LINE
  8
21
 10
13.4875
 20
61.6581
 30
0.0000
 11
13.4875
 21
61.9572
 31
0.0000
  0
ARC
  8
21
 10
13.7866
 20
61.9572
 30
0.0000
 40
0.2992
 50
0.0000
 51
180.0000
  0
LINE
  8
21
 10
14.0858
 20
61.9572
 30
0.0000
 11
14.0858
 21
61.6581
 31
0.0000
  0
ARC
  8
21
 10
13.7866
 20
61.6581
 30
0.0000
 40
0.2992
 50
180.0000
 51
0.0000
  0
LINE
  8
21
 10
14.7524
 20
61.3589
 30
0.0000
 11
14.7524
 21
62.2564
 31
0.0000
  0
LINE
  8
21
 10
14.7524
 20
62.2564
 30
0.0000
 11
15.4255
 21
62.2564
 31
0.0000
  0
ARC
  8
21
 10
15.4255
 20
62.0320
 30
0.0000
 40
0.2244
 50
0.0000
 51
90.0000
  0
LINE
  8
21
 10
15.6498
 20
62.0320
 30
0.0000
 11
15.6498
 21
61.3589
 31
0.0000
  0
LINE
  8
21
 10
15.2011
 20
61.3589
 30
0.0000
 11
15.2011
 21
62.2564
 31
0.0000
  0
LINE
  8
21
 10
16.3706
 20
60.9102
 30
0.0000
 11
16.3706
 21
62.2564
 31
0.0000
  0
LINE
  8
21
 10
16.3706
 20
62.2564
 30
0.0000
 11
16.7446
 21
62.2564
 31
0.0000
  0
ARC
  8
21
 10
16.7446
 20
62.0320
 30
0.0000
 40
0.2244
 50
0.0000
 51
90.0000
  0
LINE
  8
21
 10
16.9690
 20
62.0320
 30
0.0000
 11
16.9690
 21
61.5833
 31
0.0000
  0
ARC
  8
21
 10
16.7446
 20
61.5833
 30
0.0000
 40
0.2244
 50
270.0008
 51
0.0000
  0
LINE
  8
21
 10
16.7446
 20
61.3589
 30
0.0000
 11
16.3706
 21
61.3589
 31
0.0000
  0
LINE
  8
21
 10
17.5484
 20
61.6581
 30
0.0000
 11
17.5484
 21
61.9572
 31
0.0000
  0
ARC
  8
21
 10
17.8475
 20
61.9572
 30
0.0000
 40
0.2992
 50
0.0000
 51
180.0000
  0
LINE
  8
21
 10
18.1467
 20
61.9572
 30
0.0000
 11
18.1467
 21
61.6581
 31
0.0000
  0
ARC
  8
21
 10
17.8475
 20
61.6581
 30
0.0000
 40
0.2992
 50
180.0000
 51
0.0000
  0
LINE
  8
21
 10
18.7804
 20
61.3589
 30
0.0000
 11
18.7804
 21
62.2564
 31
0.0000
  0
LINE
  8
21
 10
18.7804
 20
62.2564
 30
0.0000
 11
19.1543
 21
62.2564
 31
0.0000
  0
ARC
  8
21
 10
19.1543
 20
62.0320
 30
0.0000
 40
0.2244
 50
0.0000
 51
90.0000
  0
LINE
  8
21
 10
19.3787
 20
62.0320
 30
0.0000
 11
19.3787
 21
61.3589
 31
0.0000
  0
LINE
  8
21
 10
20.6106
 20
61.3589
 30
0.0000
 11
20.2367
 21
61.3589
 31
0.0000
  0
ARC
  8
21
 10
20.2367
 20
61.5833
 30
0.0000
 40
0.2244
 50
180.0000
 51
270.0000
  0
LINE
  8
21
 10
20.0123
 20
61.5833
 30
0.0000
 11
20.0123
 21
61.9572
 31
0.0000
  0
ARC
  8
21
 10
20.3115
 20
61.9572
 30
0.0000
 40
0.2992
 50
0.0000
 51
180.0000
  0
LINE
  8
21
 10
20.6106
 20
61.9572
 30
0.0000
 11
20.6106
 21
61.8076
 31
0.0000
  0
LINE
  8
21
 10
20.6106
 20
61.8076
 30
0.0000
 11
20.0123
 21
61.8076
 31
0.0000
  0
LINE
  8
21
 10
21.2443
 20
61.3589
 30
0.0000
 11
21.2443
 21
62.2564
 31
0.0000
  0
LINE
  8
21
 10
21.2443
 20
62.2564
 30
0.0000
 11
21.6182
 21
62.2564
 31
0.0000
  0
ARC
  8
21
 10
21.6182
 20
62.0320
 30
0.0000
 40
0.2244
 50
0.0000
 51
90.0000
  0
LINE
  8
21
 10
21.8426
 20
62.0320
 30
0.0000
 11
21.8426
 21
61.3589
 31
0.0000
  0
LINE
  8
21
 10
22.3550
 20
62.2564
 30
0.0000
 11
22.8038
 21
62.2564
 31
0.0000
  0
LINE
  8
21
 10
22.5046
 20
62.7051
 30
0.0000
 11
22.5046
 21
61.5833
 31
0.0000
  0
ARC
  8
21
 10
22.7290
 20
61.5833
 30
0.0000
 40
0.2244
 50
180.0000
 51
270.0000
  0
LINE
  8
21
 10
22.7290
 20
61.3589
 30
0.0000
 11
22.8038
 21
61.3589
 31
0.0000
  0
LINE
  8
21
 10
24.5594
 20
61.7328
 30
0.0000
 11
24.1854
 21
61.8824
 31
0.0000
  0
ARC
  8
21
 10
24.2574
 20
62.0625
 30
0.0000
 40
0.1939
 50
89.1810
 51
248.1986
  0
ARC
  8
21
 10
24.2481
 20
61.4071
 30
0.0000
 40
0.8493
 50
65.7609
 51
89.1810
  0
ARC
  8
21
 10
24.4874
 20
61.5528
 30
0.0000
 40
0.1939
 50
269.1810
 51
68.1986
  0
ARC
  8
21
 10
24.5027
 20
62.6272
 30
0.0000
 40
1.2684
 50
250.2096
 51
269.1810
  0
LINE
  8
21
 10
25.2393
 20
61.3589
 30
0.0000
 11
25.2393
 21
62.2564
 31
0.0000
  0
LINE
  8
21
 10
25.2019
 20
62.6303
 30
0.0000
 11
25.2019
 21
62.7051
 31
0.0000
  0
LINE
  8
21
 10
25.2019
 20
62.7051
 30
0.0000
 11
25.2767
 21
62.7051
 31
0.0000
  0
LINE
  8
21
 10
25.2767
 20
62.7051
 30
0.0000
 11
25.2767
 21
62.6303
 31
0.0000
  0
LINE
  8
21
 10
25.2767
 20
62.6303
 30
0.0000
 11
25.2019
 21
62.6303
 31
0.0000
  0
LINE
  8
21
 10
26.3968
 20
62.7051
 30
0.0000
 11
26.3968
 21
61.3589
 31
0.0000
  0
LINE
  8
21
 10
26.3968
 20
61.3589
 30
0.0000
 11
26.0229
 21
61.3589
 31
0.0000
  0
ARC
  8
21
 10
26.0229
 20
61.5833
 30
0.0000
 40
0.2244
 50
180.0000
 51
270.0000
  0
LINE
  8
21
 10
25.7985
 20
61.5833
 30
0.0000
 11
25.7985
 21
62.0320
 31
0.0000
  0
ARC
  8
21
 10
26.0229
 20
62.0320
 30
0.0000
 40
0.2244
 50
89.9992
 51
180.0000
  0
LINE
  8
21
 10
26.0229
 20
62.2564
 30
0.0000
 11
26.3968
 21
62.2564
 31
0.0000
  0
LINE
  8
21
 10
27.6374
 20
61.3589
 30
0.0000
 11
27.2635
 21
61.3589
 31
0.0000
  0
ARC
  8
21
 10
27.2635
 20
61.5833
 30
0.0000
 40
0.2244
 50
180.0000
 51
270.0000
  0
LINE
  8
21
 10
27.0391
 20
61.5833
 30
0.0000
 11
27.0391
 21
61.9572
 31
0.0000
  0
ARC
  8
21
 10
27.3382
 20
61.9572
 30
0.0000
 40
0.2992
 50
0.0000
 51
180.0000
  0
LINE
  8
21
 10
27.6374
 20
61.9572
 30
0.0000
 11
27.6374
 21
61.8076
 31
0.0000
  0
LINE
  8
21
 10
27.6374
 20
61.8076
 30
0.0000
 11
27.0391
 21
61.8076
 31
0.0000
  0
LINE
  8
48
 10
24.2316
 20
73.4366
 30
0.0000
 11
24.2316
 21
74.9098
 31
0.0000
  0
LINE
  8
48
 10
24.2316
 20
74.9098
 30
0.0000
 11
24.6408
 21
74.9098
 31
0.0000
  0
ARC
  8
48
 10
24.6408
 20
74.5006
 30
0.0000
 40
0.4092
 50
359.9996
 51
90.0000
  0
LINE
  8
48
 10
25.0500
 20
74.5006
 30
0.0000
 11
25.0500
 21
73.8458
 31
0.0000
  0
ARC
  8
48
 10
24.6408
 20
73.8458
 30
0.0000
 40
0.4092
 50
270.0004
 51
360.0000
  0
LINE
  8
48
 10
24.6408
 20
73.4366
 30
0.0000
 11
24.2316
 21
73.4366
 31
0.0000
  0
LINE
  8
48
 10
25.7505
 20
73.7640
 30
0.0000
 11
25.7505
 21
74.0914
 31
0.0000
  0
ARC
  8
48
 10
26.0778
 20
74.0914
 30
0.0000
 40
0.3274
 50
0.0000
 51
180.0000
  0
LINE
  8
48
 10
26.4052
 20
74.0914
 30
0.0000
 11
26.4052
 21
73.7640
 31
0.0000
  0
ARC
  8
48
 10
26.0778
 20
73.7640
 30
0.0000
 40
0.3274
 50
180.0000
 51
0.0000
  0
LINE
  8
48
 10
27.6139
 20
73.4366
 30
0.0000
 11
27.2865
 21
73.4366
 31
0.0000
  0
ARC
  8
48
 10
27.2865
 20
73.6821
 30
0.0000
 40
0.2455
 50
180.0000
 51
270.0000
  0
LINE
  8
48
 10
27.0410
 20
73.6821
 30
0.0000
 11
27.0410
 21
74.1732
 31
0.0000
  0
ARC
  8
48
 10
27.2865
 20
74.1732
 30
0.0000
 40
0.2455
 50
90.0000
 51
180.0000
  0
LINE
  8
48
 10
27.2865
 20
74.4187
 30
0.0000
 11
27.6139
 21
74.4187
 31
0.0000
  0
LINE
  8
48
 10
28.1181
 20
73.4366
 30
0.0000
 11
28.1181
 21
73.5184
 31
0.0000
  0
LINE
  8
48
 10
28.1181
 20
73.5184
 30
0.0000
 11
28.2000
 21
73.5184
 31
0.0000
  0
LINE
  8
48
 10
28.2000
 20
73.5184
 30
0.0000
 11
28.2000
 21
73.4366
 31
0.0000
  0
LINE
  8
48
 10
28.2000
 20
73.4366
 30
0.0000
 11
28.1181
 21
73.4366
 31
0.0000
  0
LINE
  8
48
 10
28.8077
 20
74.0095
 30
0.0000
 11
29.7898
 21
74.0095
 31
0.0000
  0
LINE
  8
48
 10
30.5248
 20
73.4366
 30
0.0000
 11
30.5248
 21
74.9098
 31
0.0000
  0
LINE
  8
48
 10
30.5248
 20
74.9098
 30
0.0000
 11
31.3432
 21
73.4366
 31
0.0000
  0
LINE
  8
48
 10
31.3432
 20
73.4366
 30
0.0000
 11
31.3432
 21
74.9098
 31
0.0000
  0
LINE
  8
48
 10
32.0436
 20
73.7640
 30
0.0000
 11
32.0436
 21
74.0914
 31
0.0000
  0
ARC
  8
48
 10
32.3710
 20
74.0914
 30
0.0000
 40
0.3274
 50
0.0000
 51
180.0000
  0
LINE
  8
48
 10
32.6984
 20
74.0914
 30
0.0000
 11
32.6984
 21
73.7640
 31
0.0000
  0
ARC
  8
48
 10
32.3710
 20
73.7640
 30
0.0000
 40
0.3274
 50
180.0000
 51
0.0000
  0
LINE
  8
48
 10
33.2716
 20
73.4366
 30
0.0000
 11
33.2716
 21
73.5184
 31
0.0000
  0
LINE
  8
48
 10
33.2716
 20
73.5184
 30
0.0000
 11
33.3534
 21
73.5184
 31
0.0000
  0
LINE
  8
48
 10
33.3534
 20
73.5184
 30
0.0000
 11
33.3534
 21
73.4366
 31
0.0000
  0
LINE
  8
48
 10
33.3534
 20
73.4366
 30
0.0000
 11
33.2716
 21
73.4366
 31
0.0000
  0
LINE
  8
48
 10
33.9158
 20
73.5594
 30
0.0000
 11
33.9158
 21
73.6412
 31
0.0000
  0
LINE
  8
48
 10
33.9158
 20
73.6412
 30
0.0000
 11
33.9976
 21
73.6412
 31
0.0000
  0
LINE
  8
48
 10
33.9976
 20
73.6412
 30
0.0000
 11
33.9976
 21
73.5594
 31
0.0000
  0
LINE
  8
48
 10
33.9976
 20
73.5594
 30
0.0000
 11
33.9158
 21
73.5594
 31
0.0000
  0
LINE
  8
48
 10
33.9158
 20
74.2141
 30
0.0000
 11
33.9158
 21
74.2960
 31
0.0000
  0
LINE
  8
48
 10
33.9158
 20
74.2960
 30
0.0000
 11
33.9976
 21
74.2960
 31
0.0000
  0
LINE
  8
48
 10
33.9976
 20
74.2960
 30
0.0000
 11
33.9976
 21
74.2141
 31
0.0000
  0
LINE
  8
48
 10
33.9976
 20
74.2141
 30
0.0000
 11
33.9158
 21
74.2141
 31
0.0000
  0
LINE
  8
48
 10
38.2016
 20
63.9116
 30
0.0000
 11
38.2016
 21
65.3848
 31
0.0000
  0
LINE
  8
48
 10
38.2016
 20
65.3848
 30
0.0000
 11
38.6108
 21
65.3848
 31
0.0000
  0
ARC
  8
48
 10
38.6108
 20
64.9756
 30
0.0000
 40
0.4092
 50
270.0000
 51
90.0000
  0
LINE
  8
48
 10
38.6108
 20
64.5664
 30
0.0000
 11
38.2016
 21
64.5664
 31
0.0000
  0
LINE
  8
48
 10
39.0200
 20
63.9116
 30
0.0000
 11
38.6927
 21
64.5664
 31
0.0000
  0
LINE
  8
48
 10
40.3143
 20
63.9116
 30
0.0000
 11
39.9051
 21
63.9116
 31
0.0000
  0
ARC
  8
48
 10
39.9051
 20
64.1571
 30
0.0000
 40
0.2455
 50
180.0000
 51
270.0000
  0
LINE
  8
48
 10
39.6596
 20
64.1571
 30
0.0000
 11
39.6596
 21
64.5664
 31
0.0000
  0
ARC
  8
48
 10
39.9870
 20
64.5664
 30
0.0000
 40
0.3274
 50
0.0000
 51
180.0000
  0
LINE
  8
48
 10
40.3143
 20
64.5664
 30
0.0000
 11
40.3143
 21
64.4027
 31
0.0000
  0
LINE
  8
48
 10
40.3143
 20
64.4027
 30
0.0000
 11
39.6596
 21
64.4027
 31
0.0000
  0
LINE
  8
48
 10
40.8984
 20
64.8937
 30
0.0000
 11
41.2258
 21
63.9116
 31
0.0000
  0
LINE
  8
48
 10
41.2258
 20
63.9116
 30
0.0000
 11
41.5532
 21
64.8937
 31
0.0000
  0
LINE
  8
48
 10
42.0768
 20
63.9116
 30
0.0000
 11
42.0768
 21
63.9934
 31
0.0000
  0
LINE
  8
48
 10
42.0768
 20
63.9934
 30
0.0000
 11
42.1586
 21
63.9934
 31
0.0000
  0
LINE
  8
48
 10
42.1586
 20
63.9934
 30
0.0000
 11
42.1586
 21
63.9116
 31
0.0000
  0
LINE
  8
48
 10
42.1586
 20
63.9116
 30
0.0000
 11
42.0768
 21
63.9116
 31
0.0000
  0
LINE
  8
48
 10
42.7210
 20
64.0344
 30
0.0000
 11
42.7210
 21
64.1162
 31
0.0000
  0
LINE
  8
48
 10
42.7210
 20
64.1162
 30
0.0000
 11
42.8028
 21
64.1162
 31
0.0000
  0
LINE
  8
48
 10
42.8028
 20
64.1162
 30
0.0000
 11
42.8028
 21
64.0344
 31
0.0000
  0
LINE
  8
48
 10
42.8028
 20
64.0344
 30
0.0000
 11
42.7210
 21
64.0344
 31
0.0000
  0
LINE
  8
48
 10
42.7210
 20
64.6891
 30
0.0000
 11
42.7210
 21
64.7710
 31
0.0000
  0
LINE
  8
48
 10
42.7210
 20
64.7710
 30
0.0000
 11
42.8028
 21
64.7710
 31
0.0000
  0
LINE
  8
48
 10
42.8028
 20
64.7710
 30
0.0000
 11
42.8028
 21
64.6891
 31
0.0000
  0
LINE
  8
48
 10
42.8028
 20
64.6891
 30
0.0000
 11
42.7210
 21
64.6891
 31
0.0000
  0
LINE
  8
48
 10
38.8564
 20
70.2616
 30
0.0000
 11
38.5290
 21
70.2616
 31
0.0000
  0
ARC
  8
48
 10
38.5290
 20
70.5890
 30
0.0000
 40
0.3274
 50
180.0000
 51
270.0000
  0
LINE
  8
48
 10
38.2016
 20
70.5890
 30
0.0000
 11
38.2016
 21
71.4074
 31
0.0000
  0
ARC
  8
48
 10
38.5290
 20
71.4074
 30
0.0000
 40
0.3274
 50
90.0005
 51
180.0000
  0
LINE
  8
48
 10
38.5290
 20
71.7348
 30
0.0000
 11
38.8564
 21
71.7348
 31
0.0000
  0
LINE
  8
48
 10
39.4777
 20
71.2437
 30
0.0000
 11
39.4777
 21
70.5071
 31
0.0000
  0
ARC
  8
48
 10
39.7232
 20
70.5071
 30
0.0000
 40
0.2455
 50
180.0000
 51
270.0000
  0
LINE
  8
48
 10
39.7232
 20
70.2616
 30
0.0000
 11
40.1324
 21
70.2616
 31
0.0000
  0
LINE
  8
48
 10
40.1324
 20
70.2616
 30
0.0000
 11
40.1324
 21
71.2437
 31
0.0000
  0
LINE
  8
48
 10
40.8501
 20
70.8345
 30
0.0000
 11
41.8322
 21
70.8345
 31
0.0000
  0
LINE
  8
48
 10
42.5708
 20
71.7348
 30
0.0000
 11
42.5708
 21
70.2616
 31
0.0000
  0
LINE
  8
48
 10
42.5708
 20
70.2616
 30
0.0000
 11
43.2256
 21
70.2616
 31
0.0000
  0
LINE
  8
48
 10
44.4344
 20
70.8345
 30
0.0000
 11
44.0661
 21
70.8345
 31
0.0000
  0
ARC
  8
48
 10
44.0661
 20
70.5481
 30
0.0000
 40
0.2865
 50
90.0000
 51
270.0000
  0
LINE
  8
48
 10
44.0661
 20
70.2616
 30
0.0000
 11
44.4344
 21
70.2616
 31
0.0000
  0
LINE
  8
48
 10
44.4344
 20
70.2616
 30
0.0000
 11
44.4344
 21
70.9982
 31
0.0000
  0
ARC
  8
48
 10
44.1889
 20
70.9982
 30
0.0000
 40
0.2455
 50
0.0000
 51
90.0000
  0
LINE
  8
48
 10
44.1889
 20
71.2437
 30
0.0000
 11
43.8615
 21
71.2437
 31
0.0000
  0
LINE
  8
48
 10
45.0771
 20
69.7705
 30
0.0000
 11
45.2408
 21
69.7705
 31
0.0000
  0
LINE
  8
48
 10
45.2408
 20
69.7705
 30
0.0000
 11
45.7319
 21
71.2437
 31
0.0000
  0
LINE
  8
48
 10
45.0771
 20
71.2437
 30
0.0000
 11
45.4045
 21
70.2616
 31
0.0000
  0
LINE
  8
48
 10
46.9707
 20
70.2616
 30
0.0000
 11
46.5615
 21
70.2616
 31
0.0000
  0
ARC
  8
48
 10
46.5615
 20
70.5071
 30
0.0000
 40
0.2455
 50
180.0000
 51
270.0000
  0
LINE
  8
48
 10
46.3159
 20
70.5071
 30
0.0000
 11
46.3159
 21
70.9164
 31
0.0000
  0
ARC
  8
48
 10
46.6433
 20
70.9164
 30
0.0000
 40
0.3274
 50
0.0000
 51
180.0000
  0
LINE
  8
48
 10
46.9707
 20
70.9164
 30
0.0000
 11
46.9707
 21
70.7527
 31
0.0000
  0
LINE
  8
48
 10
46.9707
 20
70.7527
 30
0.0000
 11
46.3159
 21
70.7527
 31
0.0000
  0
LINE
  8
48
 10
47.6643
 20
70.2616
 30
0.0000
 11
47.6643
 21
71.2437
 31
0.0000
  0
LINE
  8
48
 10
47.6643
 20
71.2437
 30
0.0000
 11
48.1553
 21
71.2437
 31
0.0000
  0
LINE
  8
48
 10
48.1553
 20
71.2437
 30
0.0000
 11
48.1553
 21
71.0800
 31
0.0000
  0
LINE
  8
48
 10
49.1769
 20
70.6708
 30
0.0000
 11
48.7677
 21
70.8345
 31
0.0000
  0
ARC
  8
48
 10
48.8465
 20
71.0315
 30
0.0000
 40
0.2122
 50
89.1816
 51
248.1986
  0
ARC
  8
48
 10
48.8362
 20
70.3144
 30
0.0000
 40
0.9294
 50
65.7610
 51
89.1816
  0
ARC
  8
48
 10
49.0981
 20
70.4738
 30
0.0000
 40
0.2122
 50
269.1816
 51
68.1989
  0
ARC
  8
48
 10
49.1149
 20
71.6495
 30
0.0000
 40
1.3880
 50
250.2089
 51
269.1815
  0
LINE
  8
48
 10
49.9224
 20
70.3844
 30
0.0000
 11
49.9224
 21
70.4662
 31
0.0000
  0
LINE
  8
48
 10
49.9224
 20
70.4662
 30
0.0000
 11
50.0043
 21
70.4662
 31
0.0000
  0
LINE
  8
48
 10
50.0043
 20
70.4662
 30
0.0000
 11
50.0043
 21
70.3844
 31
0.0000
  0
LINE
  8
48
 10
50.0043
 20
70.3844
 30
0.0000
 11
49.9224
 21
70.3844
 31
0.0000
  0
LINE
  8
48
 10
49.9224
 20
71.0391
 30
0.0000
 11
49.9224
 21
71.1210
 31
0.0000
  0
LINE
  8
48
 10
49.9224
 20
71.1210
 30
0.0000
 11
50.0043
 21
71.1210
 31
0.0000
  0
LINE
  8
48
 10
50.0043
 20
71.1210
 30
0.0000
 11
50.0043
 21
71.0391
 31
0.0000
  0
LINE
  8
48
 10
50.0043
 20
71.0391
 30
0.0000
 11
49.9224
 21
71.0391
 31
0.0000
  0
LINE
  8
48
 10
24.8864
 20
70.2616
 30
0.0000
 11
24.5590
 21
70.2616
 31
0.0000
  0
ARC
  8
48
 10
24.5590
 20
70.5890
 30
0.0000
 40
0.3274
 50
180.0000
 51
270.0000
  0
LINE
  8
48
 10
24.2316
 20
70.5890
 30
0.0000
 11
24.2316
 21
71.4074
 31
0.0000
  0
ARC
  8
48
 10
24.5590
 20
71.4074
 30
0.0000
 40
0.3274
 50
90.0005
 51
180.0000
  0
LINE
  8
48
 10
24.5590
 20
71.7348
 30
0.0000
 11
24.8864
 21
71.7348
 31
0.0000
  0
LINE
  8
48
 10
25.5077
 20
71.2437
 30
0.0000
 11
25.5077
 21
70.5071
 31
0.0000
  0
ARC
  8
48
 10
25.7532
 20
70.5071
 30
0.0000
 40
0.2455
 50
180.0000
 51
270.0000
  0
LINE
  8
48
 10
25.7532
 20
70.2616
 30
0.0000
 11
26.1624
 21
70.2616
 31
0.0000
  0
LINE
  8
48
 10
26.1624
 20
70.2616
 30
0.0000
 11
26.1624
 21
71.2437
 31
0.0000
  0
LINE
  8
48
 10
26.8347
 20
70.3844
 30
0.0000
 11
26.8347
 21
70.4662
 31
0.0000
  0
LINE
  8
48
 10
26.8347
 20
70.4662
 30
0.0000
 11
26.9166
 21
70.4662
 31
0.0000
  0
LINE
  8
48
 10
26.9166
 20
70.4662
 30
0.0000
 11
26.9166
 21
70.3844
 31
0.0000
  0
LINE
  8
48
 10
26.9166
 20
70.3844
 30
0.0000
 11
26.8347
 21
70.3844
 31
0.0000
  0
LINE
  8
48
 10
26.8347
 20
71.0391
 30
0.0000
 11
26.8347
 21
71.1210
 31
0.0000
  0
LINE
  8
48
 10
26.8347
 20
71.1210
 30
0.0000
 11
26.9166
 21
71.1210
 31
0.0000
  0
LINE
  8
48
 10
26.9166
 20
71.1210
 30
0.0000
 11
26.9166
 21
71.0391
 31
0.0000
  0
LINE
  8
48
 10
26.9166
 20
71.0391
 30
0.0000
 11
26.8347
 21
71.0391
 31
0.0000
  0
LINE
  8
48
 10
1.3716
 20
68.5598
 30
0.0000
 11
1.8627
 21
67.0866
 31
0.0000
  0
LINE
  8
48
 10
1.8627
 20
67.0866
 30
0.0000
 11
2.3537
 21
68.5598
 31
0.0000
  0
LINE
  8
48
 10
3.0519
 20
68.5598
 30
0.0000
 11
3.0519
 21
67.0866
 31
0.0000
  0
LINE
  8
48
 10
2.8882
 20
67.0866
 30
0.0000
 11
3.2156
 21
67.0866
 31
0.0000
  0
LINE
  8
48
 10
2.8882
 20
68.5598
 30
0.0000
 11
3.2156
 21
68.5598
 31
0.0000
  0
LINE
  8
48
 10
4.4818
 20
67.0866
 30
0.0000
 11
4.1544
 21
67.0866
 31
0.0000
  0
ARC
  8
48
 10
4.1544
 20
67.4140
 30
0.0000
 40
0.3274
 50
180.0000
 51
270.0000
  0
LINE
  8
48
 10
3.8270
 20
67.4140
 30
0.0000
 11
3.8270
 21
68.2324
 31
0.0000
  0
ARC
  8
48
 10
4.1544
 20
68.2324
 30
0.0000
 40
0.3274
 50
90.0005
 51
180.0000
  0
LINE
  8
48
 10
4.1544
 20
68.5598
 30
0.0000
 11
4.4818
 21
68.5598
 31
0.0000
  0
LINE
  8
48
 10
5.0880
 20
67.6595
 30
0.0000
 11
6.0702
 21
67.6595
 31
0.0000
  0
ARC
  8
48
 10
7.2057
 20
68.1915
 30
0.0000
 40
0.3683
 50
0.0000
 51
90.0000
  0
ARC
  8
48
 10
7.2057
 20
68.0866
 30
0.0000
 40
0.4732
 50
90.0000
 51
162.0549
  0
ARC
  8
48
 10
7.1784
 20
68.1915
 30
0.0000
 40
0.3956
 50
313.6022
 51
0.0000
  0
LINE
  8
48
 10
7.4512
 20
67.9050
 30
0.0000
 11
6.7556
 21
67.0866
 31
0.0000
  0
LINE
  8
48
 10
6.7556
 20
67.0866
 30
0.0000
 11
7.5740
 21
67.0866
 31
0.0000
  0
ARC
  8
48
 10
9.4562
 20
67.8232
 30
0.0000
 40
1.2140
 50
154.0109
 51
180.0000
  0
ARC
  8
48
 10
8.6514
 20
68.2570
 30
0.0000
 40
0.3028
 50
90.0000
 51
161.0756
  0
ARC
  8
48
 10
8.6514
 20
68.2570
 30
0.0000
 40
0.3028
 50
18.9237
 51
90.0001
  0
ARC
  8
48
 10
7.8466
 20
67.8232
 30
0.0000
 40
1.2140
 50
360.0000
 51
25.9897
  0
ARC
  8
48
 10
9.4562
 20
67.8232
 30
0.0000
 40
1.2140
 50
180.0000
 51
205.9889
  0
ARC
  8
48
 10
8.6514
 20
67.3894
 30
0.0000
 40
0.3028
 50
198.9251
 51
270.0001
  0
ARC
  8
48
 10
7.8466
 20
67.8232
 30
0.0000
 40
1.2140
 50
334.0105
 51
359.9999
  0
ARC
  8
48
 10
8.6514
 20
67.3894
 30
0.0000
 40
0.3028
 50
270.0000
 51
341.0759
  0
LINE
  8
48
 10
8.3240
 20
67.4140
 30
0.0000
 11
8.9787
 21
68.2324
 31
0.0000
  0
LINE
  8
48
 10
9.6619
 20
66.9229
 30
0.0000
 11
10.3167
 21
66.9229
 31
0.0000
  0
LINE
  8
48
 10
10.9675
 20
67.0866
 30
0.0000
 11
10.9675
 21
68.5598
 31
0.0000
  0
LINE
  8
48
 10
10.9675
 20
68.5598
 30
0.0000
 11
11.3768
 21
68.5598
 31
0.0000
  0
ARC
  8
48
 10
11.3768
 20
68.1506
 30
0.0000
 40
0.4092
 50
359.9996
 51
90.0000
  0
LINE
  8
48
 10
11.7860
 20
68.1506
 30
0.0000
 11
11.7860
 21
67.4958
 31
0.0000
  0
ARC
  8
48
 10
11.3768
 20
67.4958
 30
0.0000
 40
0.4092
 50
270.0004
 51
360.0000
  0
LINE
  8
48
 10
11.3768
 20
67.0866
 30
0.0000
 11
10.9675
 21
67.0866
 31
0.0000
  0
LINE
  8
48
 10
12.4669
 20
67.0866
 30
0.0000
 11
12.4669
 21
68.0687
 31
0.0000
  0
LINE
  8
48
 10
12.4260
 20
68.4780
 30
0.0000
 11
12.4260
 21
68.5598
 31
0.0000
  0
LINE
  8
48
 10
12.4260
 20
68.5598
 30
0.0000
 11
12.5078
 21
68.5598
 31
0.0000
  0
LINE
  8
48
 10
12.5078
 20
68.5598
 30
0.0000
 11
12.5078
 21
68.4780
 31
0.0000
  0
LINE
  8
48
 10
12.5078
 20
68.4780
 30
0.0000
 11
12.4260
 21
68.4780
 31
0.0000
  0
LINE
  8
48
 10
13.7267
 20
67.6595
 30
0.0000
 11
13.3584
 21
67.6595
 31
0.0000
  0
ARC
  8
48
 10
13.3584
 20
67.3731
 30
0.0000
 40
0.2865
 50
90.0000
 51
270.0000
  0
LINE
  8
48
 10
13.3584
 20
67.0866
 30
0.0000
 11
13.7267
 21
67.0866
 31
0.0000
  0
LINE
  8
48
 10
13.7267
 20
67.0866
 30
0.0000
 11
13.7267
 21
67.8232
 31
0.0000
  0
ARC
  8
48
 10
13.4812
 20
67.8232
 30
0.0000
 40
0.2455
 50
0.0000
 51
90.0000
  0
LINE
  8
48
 10
13.4812
 20
68.0687
 30
0.0000
 11
13.1538
 21
68.0687
 31
0.0000
  0
LINE
  8
48
 10
15.0646
 20
67.0866
 30
0.0000
 11
14.6554
 21
67.0866
 31
0.0000
  0
ARC
  8
48
 10
14.6554
 20
67.3321
 30
0.0000
 40
0.2455
 50
180.0000
 51
270.0000
  0
LINE
  8
48
 10
14.4099
 20
67.3321
 30
0.0000
 11
14.4099
 21
67.8232
 31
0.0000
  0
ARC
  8
48
 10
14.6554
 20
67.8232
 30
0.0000
 40
0.2455
 50
90.0000
 51
180.0000
  0
LINE
  8
48
 10
14.6554
 20
68.0687
 30
0.0000
 11
15.0646
 21
68.0687
 31
0.0000
  0
LINE
  8
48
 10
15.0646
 20
68.0687
 30
0.0000
 11
15.0646
 21
66.8411
 31
0.0000
  0
ARC
  8
48
 10
14.8191
 20
66.8411
 30
0.0000
 40
0.2455
 50
270.0015
 51
0.0000
  0
LINE
  8
48
 10
14.8191
 20
66.5955
 30
0.0000
 11
14.4917
 21
66.5955
 31
0.0000
  0
LINE
  8
48
 10
15.7073
 20
66.9229
 30
0.0000
 11
16.3621
 21
66.9229
 31
0.0000
  0
LINE
  8
48
 10
17.0390
 20
67.0866
 30
0.0000
 11
17.0390
 21
68.5598
 31
0.0000
  0
LINE
  8
48
 10
17.8575
 20
68.5598
 30
0.0000
 11
17.0390
 21
67.6595
 31
0.0000
  0
LINE
  8
48
 10
17.8575
 20
67.0866
 30
0.0000
 11
17.3664
 21
67.9869
 31
0.0000
  0
LINE
  8
48
 10
19.0875
 20
67.0866
 30
0.0000
 11
18.6783
 21
67.0866
 31
0.0000
  0
ARC
  8
48
 10
18.6783
 20
67.3321
 30
0.0000
 40
0.2455
 50
180.0000
 51
270.0000
  0
LINE
  8
48
 10
18.4327
 20
67.3321
 30
0.0000
 11
18.4327
 21
67.7414
 31
0.0000
  0
ARC
  8
48
 10
18.7601
 20
67.7414
 30
0.0000
 40
0.3274
 50
0.0000
 51
180.0000
  0
LINE
  8
48
 10
19.0875
 20
67.7414
 30
0.0000
 11
19.0875
 21
67.5777
 31
0.0000
  0
LINE
  8
48
 10
19.0875
 20
67.5777
 30
0.0000
 11
18.4327
 21
67.5777
 31
0.0000
  0
LINE
  8
48
 10
19.6715
 20
66.5955
 30
0.0000
 11
19.8352
 21
66.5955
 31
0.0000
  0
LINE
  8
48
 10
19.8352
 20
66.5955
 30
0.0000
 11
20.3263
 21
68.0687
 31
0.0000
  0
LINE
  8
48
 10
19.6715
 20
68.0687
 30
0.0000
 11
19.9989
 21
67.0866
 31
0.0000
  0
LINE
  8
48
 10
20.9690
 20
68.5598
 30
0.0000
 11
20.9690
 21
67.0866
 31
0.0000
  0
LINE
  8
48
 10
20.9690
 20
67.0866
 30
0.0000
 11
21.3782
 21
67.0866
 31
0.0000
  0
ARC
  8
48
 10
21.3782
 20
67.3321
 30
0.0000
 40
0.2455
 50
270.0000
 51
0.0000
  0
LINE
  8
48
 10
21.6237
 20
67.3321
 30
0.0000
 11
21.6237
 21
67.8232
 31
0.0000
  0
ARC
  8
48
 10
21.3782
 20
67.8232
 30
0.0000
 40
0.2455
 50
0.0000
 51
90.0000
  0
LINE
  8
48
 10
21.3782
 20
68.0687
 30
0.0000
 11
20.9690
 21
68.0687
 31
0.0000
  0
LINE
  8
48
 10
22.2483
 20
67.4140
 30
0.0000
 11
22.2483
 21
67.7414
 31
0.0000
  0
ARC
  8
48
 10
22.5756
 20
67.7414
 30
0.0000
 40
0.3274
 50
0.0000
 51
180.0000
  0
LINE
  8
48
 10
22.9030
 20
67.7414
 30
0.0000
 11
22.9030
 21
67.4140
 31
0.0000
  0
ARC
  8
48
 10
22.5756
 20
67.4140
 30
0.0000
 40
0.3274
 50
180.0000
 51
0.0000
  0
LINE
  8
48
 10
24.1823
 20
67.6595
 30
0.0000
 11
23.8140
 21
67.6595
 31
0.0000
  0
ARC
  8
48
 10
23.8140
 20
67.3731
 30
0.0000
 40
0.2865
 50
90.0000
 51
270.0000
  0
LINE
  8
48
 10
23.8140
 20
67.0866
 30
0.0000
 11
24.1823
 21
67.0866
 31
0.0000
  0
LINE
  8
48
 10
24.1823
 20
67.0866
 30
0.0000
 11
24.1823
 21
67.8232
 31
0.0000
  0
ARC
  8
48
 10
23.9368
 20
67.8232
 30
0.0000
 40
0.2455
 50
0.0000
 51
90.0000
  0
LINE
  8
48
 10
23.9368
 20
68.0687
 30
0.0000
 11
23.6094
 21
68.0687
 31
0.0000
  0
LINE
  8
48
 10
24.9345
 20
67.0866
 30
0.0000
 11
24.9345
 21
68.0687
 31
0.0000
  0
LINE
  8
48
 10
24.9345
 20
68.0687
 30
0.0000
 11
25.4256
 21
68.0687
 31
0.0000
  0
LINE
  8
48
 10
25.4256
 20
68.0687
 30
0.0000
 11
25.4256
 21
67.9050
 31
0.0000
  0
LINE
  8
48
 10
26.5609
 20
68.5598
 30
0.0000
 11
26.5609
 21
67.0866
 31
0.0000
  0
LINE
  8
48
 10
26.5609
 20
67.0866
 30
0.0000
 11
26.1516
 21
67.0866
 31
0.0000
  0
ARC
  8
48
 10
26.1516
 20
67.3321
 30
0.0000
 40
0.2455
 50
180.0000
 51
270.0000
  0
LINE
  8
48
 10
25.9061
 20
67.3321
 30
0.0000
 11
25.9061
 21
67.8232
 31
0.0000
  0
ARC
  8
48
 10
26.1516
 20
67.8232
 30
0.0000
 40
0.2455
 50
90.0000
 51
180.0000
  0
LINE
  8
48
 10
26.1516
 20
68.0687
 30
0.0000
 11
26.5609
 21
68.0687
 31
0.0000
  0
LINE
  8
48
 10
1.3716
 20
65.0574
 30
0.0000
 11
1.7808
 21
65.3848
 31
0.0000
  0
LINE
  8
48
 10
1.7808
 20
65.3848
 30
0.0000
 11
1.7808
 21
63.9116
 31
0.0000
  0
LINE
  8
48
 10
1.3716
 20
63.9116
 30
0.0000
 11
2.1900
 21
63.9116
 31
0.0000
  0
LINE
  8
48
 10
2.8582
 20
65.2211
 30
0.0000
 11
2.8582
 21
65.3848
 31
0.0000
  0
LINE
  8
48
 10
2.8582
 20
65.3848
 30
0.0000
 11
3.6766
 21
65.3848
 31
0.0000
  0
LINE
  8
48
 10
3.6766
 20
65.3848
 30
0.0000
 11
3.2674
 21
63.9116
 31
0.0000
  0
LINE
  8
48
 10
4.2671
 20
63.9116
 30
0.0000
 11
4.2671
 21
63.9934
 31
0.0000
  0
LINE
  8
48
 10
4.2671
 20
63.9934
 30
0.0000
 11
4.3489
 21
63.9934
 31
0.0000
  0
LINE
  8
48
 10
4.3489
 20
63.9934
 30
0.0000
 11
4.3489
 21
63.9116
 31
0.0000
  0
LINE
  8
48
 10
4.3489
 20
63.9116
 30
0.0000
 11
4.2671
 21
63.9116
 31
0.0000
  0
ARC
  8
48
 10
6.1534
 20
64.6482
 30
0.0000
 40
1.2140
 50
154.0109
 51
180.0000
  0
ARC
  8
48
 10
5.3486
 20
65.0820
 30
0.0000
 40
0.3028
 50
90.0000
 51
161.0756
  0
ARC
  8
48
 10
5.3486
 20
65.0820
 30
0.0000
 40
0.3028
 50
18.9237
 51
90.0001
  0
ARC
  8
48
 10
4.5438
 20
64.6482
 30
0.0000
 40
1.2140
 50
360.0000
 51
25.9897
  0
ARC
  8
48
 10
6.1534
 20
64.6482
 30
0.0000
 40
1.2140
 50
180.0000
 51
205.9889
  0
ARC
  8
48
 10
5.3486
 20
64.2144
 30
0.0000
 40
0.3028
 50
198.9251
 51
270.0001
  0
ARC
  8
48
 10
4.5438
 20
64.6482
 30
0.0000
 40
1.2140
 50
334.0105
 51
359.9999
  0
ARC
  8
48
 10
5.3486
 20
64.2144
 30
0.0000
 40
0.3028
 50
270.0000
 51
341.0759
  0
LINE
  8
48
 10
5.0212
 20
64.2390
 30
0.0000
 11
5.6760
 21
65.0574
 31
0.0000
  0
LINE
  8
48
 10
7.2444
 20
64.5664
 30
0.0000
 11
6.7533
 21
64.5664
 31
0.0000
  0
ARC
  8
48
 10
6.7533
 20
64.8937
 30
0.0000
 40
0.3274
 50
179.9995
 51
270.0000
  0
LINE
  8
48
 10
6.4260
 20
64.8937
 30
0.0000
 11
6.4260
 21
64.9756
 31
0.0000
  0
ARC
  8
48
 10
6.8352
 20
64.9756
 30
0.0000
 40
0.4092
 50
0.0000
 51
180.0000
  0
LINE
  8
48
 10
7.2444
 20
64.9756
 30
0.0000
 11
7.2444
 21
64.5664
 31
0.0000
  0
ARC
  8
48
 10
6.5896
 20
64.5664
 30
0.0000
 40
0.6548
 50
269.9997
 51
360.0000
  0
LINE
  8
48
 10
7.8349
 20
63.9116
 30
0.0000
 11
7.8349
 21
63.9934
 31
0.0000
  0
LINE
  8
48
 10
7.8349
 20
63.9934
 30
0.0000
 11
7.9167
 21
63.9934
 31
0.0000
  0
LINE
  8
48
 10
7.9167
 20
63.9934
 30
0.0000
 11
7.9167
 21
63.9116
 31
0.0000
  0
LINE
  8
48
 10
7.9167
 20
63.9116
 30
0.0000
 11
7.8349
 21
63.9116
 31
0.0000
  0
ARC
  8
48
 10
8.9573
 20
65.0165
 30
0.0000
 40
0.3683
 50
0.0000
 51
90.0000
  0
ARC
  8
48
 10
8.9573
 20
64.9116
 30
0.0000
 40
0.4732
 50
90.0000
 51
162.0549
  0
ARC
  8
48
 10
8.9300
 20
65.0165
 30
0.0000
 40
0.3956
 50
313.6022
 51
0.0000
  0
LINE
  8
48
 10
9.2028
 20
64.7300
 30
0.0000
 11
8.5072
 21
63.9116
 31
0.0000
  0
LINE
  8
48
 10
8.5072
 20
63.9116
 30
0.0000
 11
9.3256
 21
63.9116
 31
0.0000
  0
ARC
  8
48
 10
11.2078
 20
64.6482
 30
0.0000
 40
1.2140
 50
154.0109
 51
180.0000
  0
ARC
  8
48
 10
10.4029
 20
65.0820
 30
0.0000
 40
0.3028
 50
90.0000
 51
161.0756
  0
ARC
  8
48
 10
10.4029
 20
65.0820
 30
0.0000
 40
0.3028
 50
18.9237
 51
90.0001
  0
ARC
  8
48
 10
9.5982
 20
64.6482
 30
0.0000
 40
1.2140
 50
360.0000
 51
25.9897
  0
ARC
  8
48
 10
11.2078
 20
64.6482
 30
0.0000
 40
1.2140
 50
180.0000
 51
205.9889
  0
ARC
  8
48
 10
10.4029
 20
64.2144
 30
0.0000
 40
0.3028
 50
198.9251
 51
270.0001
  0
ARC
  8
48
 10
9.5981
 20
64.6482
 30
0.0000
 40
1.2140
 50
334.0105
 51
359.9999
  0
ARC
  8
48
 10
10.4029
 20
64.2144
 30
0.0000
 40
0.3028
 50
270.0000
 51
341.0759
  0
LINE
  8
48
 10
10.0756
 20
64.2390
 30
0.0000
 11
10.7303
 21
65.0574
 31
0.0000
  0
ARC
  8
48
 10
11.9304
 20
65.0165
 30
0.0000
 40
0.3683
 50
0.0000
 51
90.0000
  0
ARC
  8
48
 10
11.9304
 20
64.9116
 30
0.0000
 40
0.4732
 50
90.0000
 51
162.0549
  0
ARC
  8
48
 10
11.9032
 20
65.0165
 30
0.0000
 40
0.3956
 50
313.6022
 51
0.0000
  0
LINE
  8
48
 10
12.1760
 20
64.7300
 30
0.0000
 11
11.4803
 21
63.9116
 31
0.0000
  0
LINE
  8
48
 10
11.4803
 20
63.9116
 30
0.0000
 11
12.2987
 21
63.9116
 31
0.0000
  0
ARC
  8
48
 10
14.1809
 20
64.6482
 30
0.0000
 40
1.2140
 50
154.0109
 51
180.0000
  0
ARC
  8
48
 10
13.3761
 20
65.0820
 30
0.0000
 40
0.3028
 50
90.0000
 51
161.0756
  0
ARC
  8
48
 10
13.3761
 20
65.0820
 30
0.0000
 40
0.3028
 50
18.9237
 51
90.0001
  0
ARC
  8
48
 10
12.5713
 20
64.6482
 30
0.0000
 40
1.2140
 50
360.0000
 51
25.9897
  0
ARC
  8
48
 10
14.1809
 20
64.6482
 30
0.0000
 40
1.2140
 50
180.0000
 51
205.9889
  0
ARC
  8
48
 10
13.3761
 20
64.2144
 30
0.0000
 40
0.3028
 50
198.9251
 51
270.0001
  0
ARC
  8
48
 10
12.5713
 20
64.6482
 30
0.0000
 40
1.2140
 50
334.0105
 51
359.9999
  0
ARC
  8
48
 10
13.3761
 20
64.2144
 30
0.0000
 40
0.3028
 50
270.0000
 51
341.0759
  0
LINE
  8
48
 10
13.0487
 20
64.2390
 30
0.0000
 11
13.7035
 21
65.0574
 31
0.0000
  0
LINE
  8
48
 10
15.2463
 20
65.0574
 30
0.0000
 11
15.6555
 21
65.3848
 31
0.0000
  0
LINE
  8
48
 10
15.6555
 20
65.3848
 30
0.0000
 11
15.6555
 21
63.9116
 31
0.0000
  0
LINE
  8
48
 10
15.2463
 20
63.9116
 30
0.0000
 11
16.0647
 21
63.9116
 31
0.0000
  0
LINE
  8
48
 10
16.7329
 20
64.7300
 30
0.0000
 11
17.2239
 21
64.7300
 31
0.0000
  0
ARC
  8
48
 10
17.2239
 20
64.4027
 30
0.0000
 40
0.3274
 50
0.0000
 51
90.0000
  0
LINE
  8
48
 10
17.5513
 20
64.4027
 30
0.0000
 11
17.5513
 21
64.3208
 31
0.0000
  0
ARC
  8
48
 10
17.1421
 20
64.3208
 30
0.0000
 40
0.4092
 50
180.0000
 51
0.0000
  0
LINE
  8
48
 10
16.7329
 20
64.3208
 30
0.0000
 11
16.7329
 21
64.7300
 31
0.0000
  0
ARC
  8
48
 10
17.3876
 20
64.7300
 30
0.0000
 40
0.6548
 50
90.0003
 51
180.0000
  0
LINE
  8
48
 10
18.1913
 20
64.0344
 30
0.0000
 11
18.1913
 21
64.1162
 31
0.0000
  0
LINE
  8
48
 10
18.1913
 20
64.1162
 30
0.0000
 11
18.2732
 21
64.1162
 31
0.0000
  0
LINE
  8
48
 10
18.2732
 20
64.1162
 30
0.0000
 11
18.2732
 21
64.0344
 31
0.0000
  0
LINE
  8
48
 10
18.2732
 20
64.0344
 30
0.0000
 11
18.1913
 21
64.0344
 31
0.0000
  0
LINE
  8
48
 10
18.1913
 20
64.6891
 30
0.0000
 11
18.1913
 21
64.7710
 31
0.0000
  0
LINE
  8
48
 10
18.1913
 20
64.7710
 30
0.0000
 11
18.2732
 21
64.7710
 31
0.0000
  0
LINE
  8
48
 10
18.2732
 20
64.7710
 30
0.0000
 11
18.2732
 21
64.6891
 31
0.0000
  0
LINE
  8
48
 10
18.2732
 20
64.6891
 30
0.0000
 11
18.1913
 21
64.6891
 31
0.0000
  0
ARC
  8
48
 10
19.3633
 20
65.0165
 30
0.0000
 40
0.3683
 50
0.0000
 51
90.0000
  0
ARC
  8
48
 10
19.3633
 20
64.9116
 30
0.0000
 40
0.4732
 50
90.0000
 51
162.0549
  0
ARC
  8
48
 10
19.3360
 20
65.0165
 30
0.0000
 40
0.3956
 50
313.6022
 51
0.0000
  0
LINE
  8
48
 10
19.6088
 20
64.7300
 30
0.0000
 11
18.9132
 21
63.9116
 31
0.0000
  0
LINE
  8
48
 10
18.9132
 20
63.9116
 30
0.0000
 11
19.7316
 21
63.9116
 31
0.0000
  0
LINE
  8
48
 10
20.3997
 20
64.7300
 30
0.0000
 11
20.8908
 21
64.7300
 31
0.0000
  0
ARC
  8
48
 10
20.8908
 20
64.4027
 30
0.0000
 40
0.3274
 50
0.0000
 51
90.0000
  0
LINE
  8
48
 10
21.2182
 20
64.4027
 30
0.0000
 11
21.2182
 21
64.3208
 31
0.0000
  0
ARC
  8
48
 10
20.8090
 20
64.3208
 30
0.0000
 40
0.4092
 50
180.0000
 51
0.0000
  0
LINE
  8
48
 10
20.3997
 20
64.3208
 30
0.0000
 11
20.3997
 21
64.7300
 31
0.0000
  0
ARC
  8
48
 10
21.0545
 20
64.7300
 30
0.0000
 40
0.6548
 50
90.0003
 51
180.0000
  0
ENDSEC
  0
EOF
